<?xml version="1.0" encoding="UTF-8"?>
<svg xmlns="http://www.w3.org/2000/svg" xmlns:xlink="http://www.w3.org/1999/xlink" viewBox="0 0 500 500">
  <defs>
    <style>
      .cls-1 {
        fill: url(#linear-gradient-12);
      }

      .cls-1, .cls-2, .cls-3, .cls-4, .cls-5, .cls-6, .cls-7, .cls-8, .cls-9, .cls-10, .cls-11, .cls-12, .cls-13, .cls-14, .cls-15, .cls-16, .cls-17, .cls-18, .cls-19, .cls-20, .cls-21, .cls-22, .cls-23, .cls-24, .cls-25, .cls-26, .cls-27, .cls-28, .cls-29, .cls-30, .cls-31, .cls-32, .cls-33, .cls-34, .cls-35, .cls-36, .cls-37, .cls-38, .cls-39, .cls-40, .cls-41 {
        stroke-width: 0px;
      }

      .cls-2 {
        fill: #d4daee;
      }

      .cls-3 {
        fill: url(#linear-gradient-17);
      }

      .cls-4 {
        fill: url(#linear-gradient-19);
      }

      .cls-5 {
        fill: url(#linear-gradient);
      }

      .cls-6 {
        fill: #7f7c93;
      }

      .cls-7 {
        fill: #000;
      }

      .cls-8, .cls-28 {
        fill: #a1c2ff;
      }

      .cls-8, .cls-42 {
        mix-blend-mode: multiply;
      }

      .cls-9 {
        fill: url(#linear-gradient-21);
      }

      .cls-10 {
        fill: url(#linear-gradient-6);
      }

      .cls-43 {
        fill: #fff;
        font-family: BebasNeueBold, 'Bebas Neue';
        font-size: 12.41px;
      }

      .cls-44 {
        isolation: isolate;
      }

      .cls-11 {
        fill: #02b2ca;
      }

      .cls-12 {
        fill: url(#linear-gradient-9);
        opacity: .29;
      }

      .cls-13 {
        fill: url(#New_Gradient_Swatch_4-3);
      }

      .cls-14 {
        fill: url(#linear-gradient-15);
      }

      .cls-15 {
        fill: url(#New_Gradient_Swatch_4);
      }

      .cls-16 {
        fill: url(#linear-gradient-11);
      }

      .cls-17 {
        fill: url(#linear-gradient-5);
      }

      .cls-18 {
        fill: #f7a805;
      }

      .cls-19 {
        fill: #139ad7;
      }

      .cls-20 {
        fill: url(#linear-gradient-13);
      }

      .cls-21 {
        fill: url(#New_Gradient_Swatch_4-2);
      }

      .cls-45 {
        stroke: #f7a805;
        stroke-width: 3px;
      }

      .cls-45, .cls-46 {
        fill: none;
        stroke-linecap: round;
        stroke-linejoin: round;
      }

      .cls-22 {
        fill: url(#linear-gradient-16);
      }

      .cls-23 {
        fill: url(#linear-gradient-22);
      }

      .cls-24 {
        fill: url(#linear-gradient-20);
      }

      .cls-25 {
        fill: url(#linear-gradient-14);
      }

      .cls-26 {
        fill: url(#linear-gradient-2);
      }

      .cls-27 {
        fill: url(#New_Gradient_Swatch_1);
      }

      .cls-29 {
        fill: url(#Degradado_sin_nombre_11);
      }

      .cls-46 {
        stroke: #a1c2ff;
        stroke-dasharray: 0 0 0 5;
        stroke-width: 2px;
      }

      .cls-30 {
        fill: url(#linear-gradient-7);
      }

      .cls-31 {
        fill: url(#linear-gradient-3);
      }

      .cls-32 {
        fill: url(#New_Gradient_Swatch_4-4);
      }

      .cls-33 {
        fill: #2a4c79;
      }

      .cls-34 {
        fill: url(#linear-gradient-8);
      }

      .cls-35 {
        fill: url(#linear-gradient-18);
      }

      .cls-36 {
        fill: #483e86;
      }

      .cls-37 {
        fill: url(#New_Gradient_Swatch_4-5);
      }

      .cls-38 {
        fill: url(#linear-gradient-10);
      }

      .cls-39 {
        fill: url(#linear-gradient-4);
      }

      .cls-40 {
        fill: #e7e8fa;
      }

      .cls-41 {
        fill: #221d45;
      }
    </style>
    <linearGradient id="New_Gradient_Swatch_4" data-name="New Gradient Swatch 4" x1="403.18" y1="314.51" x2="437.89" y2="412.21" gradientUnits="userSpaceOnUse">
      <stop offset="0" stop-color="#5fc3e1"/>
      <stop offset=".61" stop-color="#2197bc"/>
      <stop offset="1" stop-color="#007fa9"/>
    </linearGradient>
    <linearGradient id="linear-gradient" x1="387.77" y1="384.32" x2="421.19" y2="278.91" gradientUnits="userSpaceOnUse">
      <stop offset="0" stop-color="#ffc757"/>
      <stop offset="1" stop-color="#ff8d02"/>
    </linearGradient>
    <linearGradient id="New_Gradient_Swatch_4-2" data-name="New Gradient Swatch 4" x1="38.18" y1="276.82" x2="92.53" y2="429.8" gradientTransform="translate(177.93) rotate(-180) scale(1 -1)" xlink:href="#New_Gradient_Swatch_4"/>
    <linearGradient id="Degradado_sin_nombre_11" data-name="Degradado sin nombre 11" x1="115.94" y1="237.7" x2="391.17" y2="237.7" gradientUnits="userSpaceOnUse">
      <stop offset="0" stop-color="#00324d"/>
      <stop offset="1" stop-color="#006693"/>
    </linearGradient>
    <linearGradient id="New_Gradient_Swatch_4-3" data-name="New Gradient Swatch 4" x1="120.88" y1="367.97" x2="258.16" y2="367.97" xlink:href="#New_Gradient_Swatch_4"/>
    <linearGradient id="New_Gradient_Swatch_4-4" data-name="New Gradient Swatch 4" x1="175.72" y1="321.1" x2="182.59" y2="364.32" xlink:href="#New_Gradient_Swatch_4"/>
    <linearGradient id="New_Gradient_Swatch_4-5" data-name="New Gradient Swatch 4" x1="152.97" y1="327.47" x2="152.97" y2="374.47" xlink:href="#New_Gradient_Swatch_4"/>
    <linearGradient id="linear-gradient-2" x1="109.55" y1="343.18" x2="246.82" y2="343.18" gradientUnits="userSpaceOnUse">
      <stop offset="0" stop-color="#ff8457"/>
      <stop offset="1" stop-color="#ff3843"/>
    </linearGradient>
    <linearGradient id="linear-gradient-3" x1="164.39" y1="296.31" x2="171.26" y2="339.53" xlink:href="#linear-gradient-2"/>
    <linearGradient id="linear-gradient-4" x1="141.64" y1="302.68" x2="141.64" y2="349.68" xlink:href="#linear-gradient-2"/>
    <linearGradient id="linear-gradient-5" x1="128.44" y1="327.44" x2="91.15" y2="287.83" gradientUnits="userSpaceOnUse">
      <stop offset="0" stop-color="#e7e8fa"/>
      <stop offset=".19" stop-color="rgba(231, 231, 249, .99)" stop-opacity=".99"/>
      <stop offset=".32" stop-color="rgba(231, 231, 249, .95)" stop-opacity=".95"/>
      <stop offset=".44" stop-color="rgba(231, 231, 249, .89)" stop-opacity=".89"/>
      <stop offset=".55" stop-color="rgba(231, 230, 248, .8)" stop-opacity=".8"/>
      <stop offset=".65" stop-color="rgba(231, 229, 247, .68)" stop-opacity=".68"/>
      <stop offset=".74" stop-color="rgba(231, 228, 246, .54)" stop-opacity=".54"/>
      <stop offset=".84" stop-color="rgba(231, 227, 245, .38)" stop-opacity=".38"/>
      <stop offset=".93" stop-color="rgba(231, 225, 243, .19)" stop-opacity=".19"/>
      <stop offset="1" stop-color="#e8e0f2" stop-opacity="0"/>
    </linearGradient>
    <linearGradient id="linear-gradient-6" x1="67" y1="395.09" x2="35.01" y2="361.1" gradientTransform="translate(164.57 750.7) rotate(-180)" gradientUnits="userSpaceOnUse">
      <stop offset="0" stop-color="#6060e7"/>
      <stop offset="1" stop-color="#8182ee"/>
    </linearGradient>
    <linearGradient id="linear-gradient-7" x1="80.1" y1="294.37" x2="128.03" y2="294.37" gradientUnits="userSpaceOnUse">
      <stop offset="0" stop-color="#ff8d02"/>
      <stop offset="1" stop-color="#ffc757"/>
    </linearGradient>
    <linearGradient id="linear-gradient-8" x1="105.47" x2="138.35" xlink:href="#linear-gradient-7"/>
    <linearGradient id="linear-gradient-9" x1="116.12" y1="332.44" x2="98.58" y2="313.81" gradientTransform="matrix(1,0,0,1,0,0)" xlink:href="#linear-gradient-6"/>
    <linearGradient id="linear-gradient-10" x1="101.27" y1="448.46" x2="63.98" y2="408.85" gradientTransform="translate(26.53 -80.35)" xlink:href="#linear-gradient-5"/>
    <linearGradient id="linear-gradient-11" x1="52.93" y1="415.4" x2="100.86" y2="415.4" gradientTransform="translate(191.29 791.11) rotate(-180)" xlink:href="#linear-gradient-7"/>
    <linearGradient id="linear-gradient-12" x1="78.3" y1="415.4" x2="111.18" y2="415.4" gradientTransform="translate(191.29 791.11) rotate(-180)" xlink:href="#linear-gradient-7"/>
    <linearGradient id="linear-gradient-13" x1="227.74" y1="278.88" x2="233.47" y2="313.27" gradientTransform="translate(125.63 -84.78) rotate(21.1)" xlink:href="#linear-gradient-2"/>
    <linearGradient id="linear-gradient-14" x1="364.44" y1="223.81" x2="370.17" y2="258.2" gradientTransform="translate(500.99 -84.78) rotate(158.9) scale(1 -1)" xlink:href="#linear-gradient-2"/>
    <linearGradient id="linear-gradient-15" x1="225.46" y1="263.49" x2="253.21" y2="263.49" xlink:href="#linear-gradient-7"/>
    <linearGradient id="linear-gradient-16" x1="199.34" y1="354.16" x2="208.36" y2="354.16" xlink:href="#linear-gradient-7"/>
    <linearGradient id="linear-gradient-17" x1="197.62" y1="299.21" x2="209.21" y2="299.21" xlink:href="#linear-gradient-7"/>
    <linearGradient id="linear-gradient-18" x1="358.65" y1="186.07" x2="302.09" y2="220.69" xlink:href="#linear-gradient-2"/>
    <linearGradient id="New_Gradient_Swatch_1" data-name="New Gradient Swatch 1" x1="323.55" y1="276.54" x2="349.93" y2="276.54" gradientUnits="userSpaceOnUse">
      <stop offset="0" stop-color="#f7a805"/>
      <stop offset=".19" stop-color="#f6a306"/>
      <stop offset=".41" stop-color="#f3950c"/>
      <stop offset=".64" stop-color="#f07d15"/>
      <stop offset=".89" stop-color="#ea5d21"/>
      <stop offset="1" stop-color="#e84c28"/>
    </linearGradient>
    <linearGradient id="linear-gradient-19" x1="280.05" y1="337.34" x2="354.47" y2="337.34" xlink:href="#linear-gradient-2"/>
    <linearGradient id="linear-gradient-20" x1="71.12" y1="337.34" x2="145.53" y2="337.34" gradientTransform="translate(283.34 674.68) scale(1 -1)" xlink:href="#linear-gradient-2"/>
    <linearGradient id="linear-gradient-21" x1="93.89" y1="126.89" x2="118.24" y2="199.71" xlink:href="#linear-gradient"/>
    <linearGradient id="linear-gradient-22" x1="147.62" y1="108.74" x2="117.14" y2="155.11" gradientTransform="translate(66.39 -34.27) rotate(22.35)" xlink:href="#linear-gradient-5"/>
  </defs>
  <g class="cls-44">
    <g id="OBJECTS">
      <g>
        <path class="cls-28" d="M404.86,194.32c-6.88,0-12.45,5.58-12.45,12.45s5.58,12.45,12.45,12.45,12.45-5.58,12.45-12.45-5.58-12.45-12.45-12.45ZM404.86,213.52c-3.73,0-6.75-3.02-6.75-6.75s3.02-6.75,6.75-6.75,6.75,3.02,6.75,6.75-3.02,6.75-6.75,6.75Z"/>
        <path class="cls-15" d="M461.84,364.52c2.96,5.33-7.52,13.01-12.8,16.44h-72.4c.37-3.29,2-10.8,9.23-12.93,9.34-2.76,9.45,4.32,9.45,4.32,0,0,7.83-19.57,17.22-18.78s3.91,12.52,3.91,12.52c0,0,34.44-37.57,43.83-29.74,9.39,7.83-17.22,35.22-17.22,35.22,0,0,14.87-14.09,18.78-7.04Z"/>
        <path class="cls-5" d="M439.67,345.24c2.96,5.33-7.52,13.01-12.8,16.44h-72.4c.37-3.29,2-10.8,9.23-12.93,9.34-2.76,9.45,4.32,9.45,4.32,0,0,7.83-19.57,17.22-18.78,9.39.78,3.91,12.52,3.91,12.52,0,0,34.44-37.57,43.83-29.74,9.39,7.83-17.22,35.22-17.22,35.22,0,0,14.87-14.09,18.78-7.04Z"/>
        <path class="cls-21" d="M47.9,355.13c-4.64,8.35,11.78,20.38,20.04,25.74h113.37c-.58-5.15-3.13-16.91-14.45-20.25-14.62-4.32-14.79,6.77-14.79,6.77,0,0-12.25-30.64-26.96-29.41-14.71,1.23-6.13,19.61-6.13,19.61,0,0-53.92-58.82-68.63-46.57-14.71,12.25,26.96,55.15,26.96,55.15,0,0-23.28-22.06-29.41-11.03Z"/>
        <line class="cls-46" x1="411.69" y1="227.99" x2="411.69" y2="274.81"/>
        <line class="cls-46" x1="146.06" y1="136.87" x2="193.4" y2="136.87"/>
        <rect class="cls-28" x="199.42" y="131.9" width="39.85" height="7.71"/>
        <g>
          <rect class="cls-28" x="66.05" y="276.84" width="6.43" height="6.43"/>
          <rect class="cls-40" x="73.92" y="269.61" width="6.43" height="6.43"/>
        </g>
        <g>
          <rect class="cls-28" x="414.1" y="174.64" width="6.43" height="6.43"/>
          <rect class="cls-40" x="421.97" y="167.41" width="6.43" height="6.43"/>
        </g>
        <g>
          <g>
            <g>
              <g>
                <rect class="cls-40" x="103.4" y="148.07" width="300.3" height="191.97" rx="10.51" ry="10.51"/>
                <path class="cls-29" d="M119.75,157.6h267.62c2.1,0,3.81,1.71,3.81,3.81v152.59c0,2.1-1.71,3.81-3.81,3.81H119.75c-2.1,0-3.81-1.71-3.81-3.81v-152.59c0-2.1,1.71-3.81,3.81-3.81Z"/>
              </g>
              <path class="cls-40" d="M204.23,148.07l3.85,8.66c2.29,5.16,7.41,8.48,13.05,8.48h64.85c5.64,0,10.76-3.32,13.05-8.48l3.85-8.66h-98.65Z"/>
            </g>
            <path class="cls-8" d="M270.32,158.89h-36.35c-1.03,0-1.86-.83-1.86-1.86h0c0-1.03.83-1.86,1.86-1.86h36.35c1.03,0,1.86.83,1.86,1.86h0c0,1.03-.83,1.86-1.86,1.86Z"/>
          </g>
          <g>
            <path class="cls-40" d="M253.55,376.7h-49.64c-4.82,0-8.73-3.91-8.73-8.73h0c0-4.82,3.91-8.73,8.73-8.73h49.64v17.45Z"/>
            <path class="cls-13" d="M204.21,359.24h53.95v-3.86h-128.24c-4.99,0-9.03,4.04-9.03,9.03v7.11c0,4.99,4.04,9.03,9.03,9.03h128.24v-3.86h-54.24c-4.87,0-8.81-4-8.73-8.89.09-4.8,4.21-8.56,9.01-8.56Z"/>
            <rect class="cls-32" x="182.31" y="355.38" width="1.72" height="25.18"/>
            <rect class="cls-37" x="130.22" y="362.99" width="45.51" height="10.27"/>
          </g>
          <g>
            <path class="cls-40" d="M242.22,351.91h-49.64c-4.82,0-8.73-3.91-8.73-8.73h0c0-4.82,3.91-8.73,8.73-8.73h49.64v17.45Z"/>
            <path class="cls-26" d="M192.87,334.45h53.95v-3.86H118.58c-4.99,0-9.03,4.04-9.03,9.03v7.11c0,4.99,4.04,9.03,9.03,9.03h128.24v-3.86h-54.24c-4.87,0-8.81-4-8.73-8.89.09-4.8,4.21-8.56,9.01-8.56Z"/>
            <rect class="cls-31" x="170.98" y="330.59" width="1.72" height="25.18"/>
            <rect class="cls-39" x="118.89" y="338.21" width="45.51" height="10.27"/>
          </g>
          <g>
            <g class="cls-42">
              <path class="cls-28" d="M138.1,294.37h-34.7v35.16c0,5.81,4.71,10.51,10.51,10.51h5.23c11.32-2.09,19.89-12,19.89-23.91v-11.02c2.54-.44,4.48-2.66,4.48-5.33,0-2.99-2.42-5.41-5.41-5.41Z"/>
            </g>
            <g>
              <g>
                <path class="cls-17" d="M85.22,294.37h48.65v16.34c0,13.43-10.9,24.33-24.33,24.33h0c-13.43,0-24.33-10.9-24.33-24.33v-16.34h0Z"/>
                <path class="cls-10" d="M130.22,371.21c-1.34-10.24-10.07-18.14-20.67-18.14h0c-10.6,0-19.33,7.91-20.67,18.14h41.34Z"/>
                <g>
                  <path class="cls-30" d="M128.03,299.79h-42.52c-2.99,0-5.41-2.42-5.41-5.41h0c0-2.99,2.42-5.41,5.41-5.41h42.52v10.83Z"/>
                  <path class="cls-34" d="M132.94,299.79h-27.47v-10.83h27.47c2.99,0,5.41,2.42,5.41,5.41h0c0,2.99-2.42,5.41-5.41,5.41Z"/>
                </g>
              </g>
              <path class="cls-12" d="M98.21,323.89c.73,5.61,5.52,9.95,11.33,9.95h0c5.81,0,10.6-4.34,11.33-9.95h-22.67Z"/>
              <g>
                <path class="cls-38" d="M84.58,335.04h48.65v16.34c0,13.43-10.9,24.33-24.33,24.33h0c-13.43,0-24.33-10.9-24.33-24.33v-16.35h0Z" transform="translate(217.82 710.76) rotate(-180)"/>
                <g>
                  <path class="cls-16" d="M90.42,370.3h42.52c2.99,0,5.41,2.42,5.41,5.41h0c0,2.99-2.42,5.41-5.41,5.41h-42.52v-10.83Z"/>
                  <path class="cls-1" d="M85.52,370.3h27.47v10.83h-27.47c-2.99,0-5.41-2.42-5.41-5.41h0c0-2.99,2.42-5.41,5.41-5.41Z"/>
                </g>
              </g>
            </g>
          </g>
          <path class="cls-8" d="M259.59,183.08H103.4v97.88h123.23l-3.68,9.55,6.25-2.45,3.37,6.17,4.89-12.68c.08.01.17.01.25.04l.7.23,3.95,10.25,3.37-6.17,6.25,2.45-2.85-7.38h10.43c2.29,0,4.15-1.86,4.15-4.15v-89.58c0-2.29-1.86-4.15-4.15-4.15Z"/>
          <g>
            <g>
              <rect class="cls-40" x="95.02" y="177.49" width="170.87" height="97.88" rx="4.15" ry="4.15"/>
              <path class="cls-2" d="M252.15,197.53c-6.16,0-11.16-5-11.16-11.16v-.02c0-.81-.63-1.48-1.44-1.48h-119.62c-.81,0-1.44.67-1.44,1.48v.02c0,6.16-5,11.16-11.16,11.16-.43,0-.86-.03-1.28-.08-.85-.1-1.59.57-1.59,1.43v53.97c0,.86.74,1.53,1.59,1.42,1.7-.2,3.51-.02,5.41.78,2.47,1.04,4.5,2.95,5.74,5.32,1.13,2.15,1.42,4.18,1.22,6.07-.09.84.59,1.56,1.43,1.56h119.75c.85,0,1.51-.73,1.43-1.58-.19-1.9.11-3.95,1.26-6.12,1.54-2.89,4.21-5.11,7.41-5.83,1.37-.31,2.7-.35,3.96-.17.86.12,1.63-.55,1.63-1.42v-54.04c0-.86-.75-1.55-1.6-1.43-.51.07-1.02.11-1.55.11Z"/>
            </g>
            <rect class="cls-8" x="147.11" y="194.67" width="66.97" height="6.3" rx="3.15" ry="3.15"/>
            <g class="cls-42">
              <path class="cls-18" d="M162.28,219.85h-30.91c-1.42,0-2.58-1.15-2.58-2.58h0c0-1.42,1.15-2.58,2.58-2.58h30.91c1.42,0,2.58,1.15,2.58,2.58h0c0,1.42-1.15,2.58-2.58,2.58Z"/>
              <path class="cls-28" d="M233.26,219.85h-62.46c-1.42,0-2.58-1.15-2.58-2.58h0c0-1.42,1.15-2.58,2.58-2.58h62.46c1.42,0,2.58,1.15,2.58,2.58h0c0,1.42-1.15,2.58-2.58,2.58Z"/>
              <path class="cls-28" d="M238.84,229.73h-113.98c-1.42,0-2.58-1.15-2.58-2.58h0c0-1.42,1.15-2.58,2.58-2.58h113.98c1.42,0,2.58,1.15,2.58,2.58h0c0,1.42-1.15,2.58-2.58,2.58Z"/>
              <path class="cls-28" d="M211.58,239.17h-59.46c-1.42,0-2.58-1.15-2.58-2.58h0c0-1.42,1.15-2.58,2.58-2.58h59.46c1.42,0,2.58,1.15,2.58,2.58h0c0,1.42-1.15,2.58-2.58,2.58Z"/>
            </g>
            <g>
              <g>
                <polygon class="cls-20" points="234.72 288.64 231.35 282.47 225.1 284.92 232.6 265.48 242.23 269.19 234.72 288.64"/>
                <polygon class="cls-25" points="244.52 286.47 247.89 280.3 254.15 282.76 246.65 263.31 237.02 267.03 244.52 286.47"/>
              </g>
              <path class="cls-14" d="M239.87,250.98l3.95-1.28c.82-.26,1.7.1,2.09.87l1.89,3.7c.17.33.43.59.76.76l3.7,1.89c.76.39,1.13,1.28.87,2.09l-1.28,3.95c-.11.35-.11.73,0,1.07l1.28,3.95c.26.82-.1,1.7-.87,2.09l-3.7,1.89c-.33.17-.59.43-.76.76l-1.89,3.7c-.39.76-1.28,1.13-2.09.87l-3.95-1.28c-.35-.11-.73-.11-1.07,0l-3.95,1.28c-.82.26-1.7-.1-2.09-.87l-1.89-3.7c-.17-.33-.43-.59-.76-.76l-3.7-1.89c-.76-.39-1.13-1.28-.87-2.09l1.28-3.95c.11-.35.11-.73,0-1.07l-1.28-3.95c-.26-.82.1-1.7.87-2.09l3.7-1.89c.33-.17.59-.43.76-.76l1.89-3.7c.39-.76,1.28-1.13,2.09-.87l3.95,1.28c.35.11.73.11,1.07,0Z"/>
            </g>
          </g>
          <g>
            <g>
              <path class="cls-7" d="M218.73,305.93l-16.74,1.1-16.74-1.1s-8.59,5.44-14.88,24.9h63.25c-6.3-19.46-14.88-24.9-14.88-24.9Z"/>
              <path class="cls-41" d="M202.67,288.87l-53.66,9.99c-2.77.52-2.77,4.49,0,5.01l53.66,9.99c.31.06.62.06.93,0l53.66-9.99c2.77-.52,2.77-4.49,0-5.01l-53.66-9.99c-.31-.06-.62-.06-.93,0Z"/>
            </g>
            <g>
              <line class="cls-45" x1="203.63" y1="299.85" x2="203.63" y2="345.36"/>
              <path class="cls-22" d="M208.36,354.16c0,4.86-2.02,8.8-4.51,8.8s-4.51-3.94-4.51-8.8,2.02-8.8,4.51-8.8,4.51,3.94,4.51,8.8Z"/>
              <path class="cls-3" d="M209.21,299.2c0,1.3-2.59,2.36-5.8,2.36s-5.8-1.06-5.8-2.36,2.59-2.36,5.8-2.36,5.8,1.06,5.8,2.36Z"/>
            </g>
          </g>
          <path class="cls-8" d="M393.19,340.05c5.81,0,10.51-4.71,10.51-10.51v-30.6c-20.43-6.79-42.62-6.38-62.83,1.26-21.4-8.08-45.01-8.08-66.4,0v4.01h-5.51c-1.38,0-2.5,1.12-2.5,2.5v33.35h126.73Z"/>
          <g>
            <rect class="cls-40" x="285.63" y="176.92" width="93.88" height="55.52" rx="6.87" ry="6.87"/>
            <path class="cls-35" d="M348.35,202.54l-20.07-11.59c-2.1-1.21-4.73.3-4.73,2.73v23.17c0,2.43,2.63,3.94,4.73,2.73l20.07-11.59c2.1-1.21,2.1-4.25,0-5.46Z"/>
            <path class="cls-11" d="M359.47,171.06h32.63c1.9,0,3.43,1.54,3.43,3.43v9.87c0,1.9-1.54,3.43-3.43,3.43h-32.63c-1.9,0-3.43-1.54-3.43-3.43v-9.87c0-1.9,1.54-3.43,3.43-3.43Z"/>
            <text class="cls-43" transform="translate(361.67 184.21)"><tspan x="0" y="0">TEST 01</tspan></text>
          </g>
          <g>
            <rect class="cls-19" x="285.63" y="248.19" width="93.88" height="55.52" rx="6.87" ry="6.87"/>
            <path class="cls-27" d="M348.35,273.81l-20.07-11.59c-2.1-1.21-4.73.3-4.73,2.73v23.17c0,2.43,2.63,3.94,4.73,2.73l20.07-11.59c2.1-1.21,2.1-4.25,0-5.46Z"/>
            <path class="cls-11" d="M359.47,242.32h32.63c1.9,0,3.43,1.54,3.43,3.43v9.87c0,1.9-1.54,3.43-3.43,3.43h-32.63c-1.9,0-3.43-1.54-3.43-3.43v-9.87c0-1.9,1.54-3.43,3.43-3.43Z"/>
            <text class="cls-43" transform="translate(361.67 255.48)"><tspan x="0" y="0">TEST 02</tspan></text>
          </g>
          <g>
            <g>
              <g>
                <path class="cls-4" d="M282.56,294.12h71.91v86.44h-71.91c-1.38,0-2.5-1.12-2.5-2.5v-81.43c0-1.38,1.12-2.5,2.5-2.5Z"/>
                <path class="cls-40" d="M354.47,375.41h-66.4v-85.29c21.4-8.08,45.01-8.08,66.4,0v85.29Z"/>
              </g>
              <g>
                <path class="cls-24" d="M356.97,294.12h71.91v86.44h-71.91c-1.38,0-2.5-1.12-2.5-2.5v-81.43c0-1.38,1.12-2.5,2.5-2.5Z" transform="translate(783.34 674.68) rotate(180)"/>
                <path class="cls-40" d="M354.47,375.41h66.4c0-28.43,0-56.86,0-85.29-21.4-8.08-45.01-8.08-66.4,0v85.29Z"/>
              </g>
            </g>
            <g>
              <g>
                <path class="cls-28" d="M341.82,312.61c-13.96-2.35-28.58-2.35-42.54,0-1.16.19-2.26-.56-2.48-1.72h0c-.22-1.17.56-2.31,1.74-2.51,14.45-2.43,29.58-2.43,44.02,0,1.18.2,1.96,1.34,1.74,2.51h0c-.21,1.16-1.32,1.91-2.48,1.72Z"/>
                <path class="cls-28" d="M341.82,325.33c-13.96-2.35-28.58-2.35-42.54,0-1.16.19-2.26-.56-2.48-1.72h0c-.22-1.17.56-2.31,1.74-2.51,14.45-2.43,29.58-2.43,44.02,0,1.18.2,1.96,1.34,1.74,2.51h0c-.21,1.16-1.32,1.91-2.48,1.72Z"/>
                <path class="cls-28" d="M341.82,338.05c-13.96-2.35-28.58-2.35-42.54,0-1.16.19-2.26-.56-2.48-1.72h0c-.22-1.17.56-2.31,1.74-2.51,14.45-2.43,29.58-2.43,44.02,0,1.18.2,1.96,1.34,1.74,2.51h0c-.21,1.16-1.32,1.91-2.48,1.72Z"/>
                <path class="cls-28" d="M341.82,350.78c-13.96-2.35-28.58-2.35-42.54,0-1.16.19-2.26-.56-2.48-1.72h0c-.22-1.17.56-2.31,1.74-2.51,14.45-2.43,29.58-2.43,44.02,0,1.18.2,1.96,1.34,1.74,2.51h0c-.21,1.16-1.32,1.91-2.48,1.72Z"/>
              </g>
              <g>
                <path class="cls-28" d="M410.51,312.61c-13.96-2.35-28.58-2.35-42.54,0-1.16.19-2.26-.56-2.48-1.72h0c-.22-1.17.56-2.31,1.74-2.51,14.45-2.43,29.58-2.43,44.02,0,1.18.2,1.96,1.34,1.74,2.51h0c-.21,1.16-1.32,1.91-2.48,1.72Z"/>
                <path class="cls-28" d="M410.51,325.33c-13.96-2.35-28.58-2.35-42.54,0-1.16.19-2.26-.56-2.48-1.72h0c-.22-1.17.56-2.31,1.74-2.51,14.45-2.43,29.58-2.43,44.02,0,1.18.2,1.96,1.34,1.74,2.51h0c-.21,1.16-1.32,1.91-2.48,1.72Z"/>
                <path class="cls-28" d="M410.51,338.05c-13.96-2.35-28.58-2.35-42.54,0-1.16.19-2.26-.56-2.48-1.72h0c-.22-1.17.56-2.31,1.74-2.51,14.45-2.43,29.58-2.43,44.02,0,1.18.2,1.96,1.34,1.74,2.51h0c-.21,1.16-1.32,1.91-2.48,1.72Z"/>
                <path class="cls-28" d="M410.51,350.78c-13.96-2.35-28.58-2.35-42.54,0-1.16.19-2.26-.56-2.48-1.72h0c-.22-1.17.56-2.31,1.74-2.51,14.45-2.43,29.58-2.43,44.02,0,1.18.2,1.96,1.34,1.74,2.51h0c-.21,1.16-1.32,1.91-2.48,1.72Z"/>
              </g>
            </g>
          </g>
          <path class="cls-8" d="M103.4,158.59v64.05c.39.12.8.23,1.22.28h0s0,0,0,0c.18.02.37.04.56.04v2.8c0,1.36,1.11,2.47,2.47,2.47h3.65c1.36,0,2.47-1.11,2.47-2.47v-2.8c3.51-.18,6.33-3,6.46-6.55l.36-10.1c6.73-2.31,9.05-14.37,10.01-19.21.09-.35.29-.66.58-.87,11.63-9.34,14.84-25.28,8.58-38.15h-25.83c-5.81,0-10.51,4.71-10.51,10.51Z"/>
          <g>
            <path class="cls-28" d="M99.74,215.27h8.59v5.9c0,1.36-1.11,2.47-2.47,2.47h-3.65c-1.36,0-2.47-1.11-2.47-2.47v-5.9h0Z"/>
            <g>
              <g>
                <path class="cls-41" d="M107.98,218.39h-7.96c-3.67,0-6.67-2.9-6.8-6.56l-.63-17.6h22.82l-.63,17.6c-.13,3.66-3.14,6.56-6.8,6.56Z"/>
                <path class="cls-36" d="M99.18,218.33c3.28-.4,5.85-3.13,5.97-6.51l.63-17.6h-13.19l.63,17.6c.12,3.38,2.69,6.11,5.97,6.51Z"/>
                <path class="cls-9" d="M82.27,181.66c.3.22.51.55.59.92,1.03,5.34,3.79,19.55,12.31,19.55h17.63c8.55,0,11.28-14.23,12.34-19.6.09-.35.29-.66.58-.87,13.51-10.85,15.66-30.6,4.81-44.11-.82-1.02-1.7-1.98-2.64-2.89-6.38-6.27-14.98-9.75-23.92-9.68h-.56c-9.11.18-17.77,4-24.04,10.62-5.92,6.09-9.11,14.33-8.84,22.82.42,9.07,4.68,17.52,11.72,23.25Z"/>
              </g>
              <circle class="cls-23" cx="119.92" cy="150.88" r="10.3" transform="translate(-48.37 56.94) rotate(-22.35)"/>
            </g>
          </g>
          <g>
            <path class="cls-8" d="M343.6,369.38l-3.22-3.22c-.4-.4-.95-.63-1.52-.63h-21.7c-1.05-7.68-7.61-13.6-15.58-13.6-.28,0-.55.03-.82.04-.3-.02-.59-.04-.89-.04h0c-.18,0-.37,0-.55.01-.06,0-.12.02-.17.02-7.96.36-14.37,6.62-14.96,14.52-1.5-.29-3.05-.34-4.57-.18v2.61c1.52-.19,3.1-.12,4.58.22.43,4.64,2.87,8.68,6.44,11.27h20.18c3.38-2.46,5.75-6.24,6.34-10.59h20.81l2.59,2.59c.42.42.97.63,1.52.63s1.1-.21,1.52-.63c.84-.84.84-2.2,0-3.04Z"/>
            <g>
              <g>
                <g>
                  <path class="cls-6" d="M338.08,370.18c-.55,0-1.1-.21-1.52-.63l-2.59-2.59h-22.37c-1.19,0-2.15-.96-2.15-2.15s.96-2.15,2.15-2.15h23.25c.57,0,1.12.23,1.52.63l3.22,3.22c.84.84.84,2.2,0,3.04-.42.42-.97.63-1.52.63Z"/>
                  <g>
                    <path class="cls-6" d="M281.73,366.74c-2.76-1.06-6.19-1.06-8.95,0l-.93-2.4c3.38-1.3,7.42-1.3,10.8,0l-.93,2.4Z"/>
                    <g>
                      <circle class="cls-7" cx="258.73" cy="364.82" r="15.74" transform="translate(-155.51 533.46) rotate(-76.81)"/>
                      <g>
                        <circle class="cls-41" cx="257.01" cy="364.82" r="15.74" transform="translate(-121 127.64) rotate(-22.73)"/>
                        <circle class="cls-28" cx="257.01" cy="364.82" r="12.31" transform="translate(-120.79 127.3) rotate(-22.68)"/>
                        <path class="cls-40" d="M257.87,352.55c-6.39.44-11.45,5.76-11.45,12.26s5.05,11.82,11.45,12.26c6.39-.44,11.45-5.76,11.45-12.26s-5.05-11.82-11.45-12.26Z"/>
                      </g>
                    </g>
                    <g>
                      <circle class="cls-7" cx="297.58" cy="364.82" r="15.74" transform="translate(-125.52 571.29) rotate(-76.81)"/>
                      <g>
                        <circle class="cls-41" cx="295.86" cy="364.82" r="15.74" transform="translate(-117.98 142.65) rotate(-22.73)"/>
                        <circle class="cls-28" cx="295.86" cy="364.82" r="12.31" transform="translate(-117.79 142.29) rotate(-22.68)"/>
                        <path class="cls-40" d="M296.72,352.55c-6.39.44-11.45,5.76-11.45,12.26s5.05,11.82,11.45,12.26c6.39-.44,11.45-5.76,11.45-12.26s-5.05-11.82-11.45-12.26Z"/>
                      </g>
                    </g>
                  </g>
                </g>
                <path class="cls-33" d="M296.9,352.57c1.15.1,2.26.35,3.3.75,1.12.43,2.32-.41,2.32-1.61h0c0-.72-.44-1.36-1.11-1.61-1.72-.65-3.59-1.02-5.54-1.02-.18,0-.37,0-.55.01-.93.04-1.67.79-1.67,1.72v.18c0,1.07.96,1.86,2.01,1.69.29-.05.59-.08.89-.11.12-.01.24-.01.36,0Z"/>
              </g>
              <g>
                <path class="cls-28" d="M264.39,354.99l-8.47,21.79c.63.15,1.28.26,1.94.3.08,0,.16-.02.24-.03l7.98-20.53c-.52-.56-1.08-1.08-1.69-1.54Z"/>
                <path class="cls-28" d="M257.87,352.55c-.5.03-1,.11-1.48.2l-7.53,19.38c1.34,1.8,3.17,3.22,5.29,4.07l8.64-22.24c-1.49-.79-3.14-1.3-4.91-1.42Z"/>
              </g>
              <g>
                <path class="cls-28" d="M303.08,354.86l-8.5,21.87c.69.17,1.41.3,2.14.35,0,0,0,0,.01,0l8.05-20.72c-.52-.55-1.09-1.05-1.71-1.49Z"/>
                <path class="cls-28" d="M296.72,352.55c-.59.04-1.16.14-1.72.26l-7.44,19.14c1.32,1.84,3.13,3.3,5.24,4.19l8.65-22.26c-1.44-.74-3.04-1.21-4.74-1.32Z"/>
              </g>
            </g>
          </g>
        </g>
      </g>
    </g>
  </g>
</svg>