<?xml version="1.0" encoding="utf-8"?>
<!-- Generator: Adobe Illustrator 28.3.0, SVG Export Plug-In . SVG Version: 6.00 Build 0)  -->
<svg version="1.1" id="Capa_1" xmlns="http://www.w3.org/2000/svg" xmlns:xlink="http://www.w3.org/1999/xlink" x="0px" y="0px"
	 viewBox="0 0 415.3 256.2" style="enable-background:new 0 0 415.3 256.2;" xml:space="preserve">
<style type="text/css">
	.st0{enable-background:new    ;}
	.st1{fill:#A1C2FF;}
	.st2{fill:url(#SVGID_1_);}
	.st3{fill:url(#SVGID_00000122686238889048825970000017720732382677501597_);}
	.st4{fill:url(#SVGID_00000030488312031409991630000018003799315852571549_);}
	.st5{fill:none;stroke:#A1C2FF;stroke-width:2;stroke-linecap:round;stroke-linejoin:round;stroke-dasharray:0,0,0,5;}
	.st6{fill:#E7E8FA;}
	.st7{fill:url(#SVGID_00000019653918003646682320000008867634581657633470_);}
	.st8{fill:#A1C2FF;enable-background:new    ;}
	.st9{fill:url(#SVGID_00000099628164376417643660000001978324684861061766_);}
	.st10{fill:url(#SVGID_00000115487595619970882310000003047858469009408400_);}
	.st11{fill:url(#SVGID_00000000212700796129060120000006159993406946105258_);}
	.st12{fill:url(#SVGID_00000071549172079247946930000008192648169334752442_);}
	.st13{fill:url(#SVGID_00000009586360409222740610000006913617021516136357_);}
	.st14{fill:url(#SVGID_00000156574387938093985780000002776521896359600037_);}
	.st15{fill:url(#SVGID_00000171688331794202418120000011241456575649214091_);}
	.st16{fill:url(#SVGID_00000139278637704641344900000012681679530110328751_);}
	.st17{fill:url(#SVGID_00000152263838229258965010000008552694419804710813_);}
	.st18{fill:url(#SVGID_00000108995715303135752140000001779715381851183001_);}
	.st19{opacity:0.29;fill:url(#SVGID_00000030456073067656583690000007362928186114034330_);enable-background:new    ;}
	.st20{fill:url(#SVGID_00000150099112787766165370000005850211451223085191_);}
	.st21{fill:url(#SVGID_00000043435315908421103800000004121900031134810297_);}
	.st22{fill:url(#SVGID_00000035532873365566274530000009192830866634042506_);}
	.st23{fill:#D4DAEE;}
	.st24{fill:#F7A805;}
	.st25{fill:url(#SVGID_00000086649585307587653820000014999303438753137554_);}
	.st26{fill:url(#SVGID_00000052824809549512241690000011260904493373596294_);}
	.st27{fill:url(#SVGID_00000083770536656543762240000005613769687906315959_);}
	.st28{fill:#221D45;}
	.st29{fill:none;stroke:#F7A805;stroke-width:3;stroke-linecap:round;stroke-linejoin:round;}
	.st30{fill:url(#SVGID_00000054242960192676898450000005755616186649236901_);}
	.st31{fill:url(#SVGID_00000137815647943830795760000010038655850470997907_);}
	.st32{fill:url(#SVGID_00000167376353787257386080000017645109817413078940_);}
	.st33{fill:#02B2CA;}
	.st34{fill:#FFFFFF;}
	.st35{font-family:'BebasNeueBold';}
	.st36{font-size:12.41px;}
	.st37{fill:#139AD7;}
	.st38{fill:url(#SVGID_00000037674737787036752490000008888076602552861351_);}
	.st39{fill:url(#SVGID_00000016782537964747960780000018198961341965486254_);}
	.st40{fill:url(#SVGID_00000018208922957863532740000016047495947887604415_);}
	.st41{fill:#483E86;}
	.st42{fill:url(#SVGID_00000006666069061610502880000015726875019471832495_);}
	.st43{fill:url(#SVGID_00000008127285681743739040000006979050846881543323_);}
	.st44{fill:#7F7C93;}
	.st45{fill:#2A4C79;}
</style>
<g class="st0">
	<g id="OBJECTS">
		<g>
			<path class="st1" d="M357.8,69.3c-6.9,0-12.5,5.6-12.5,12.4s5.6,12.4,12.5,12.4s12.5-5.6,12.5-12.4S364.6,69.3,357.8,69.3z
				 M357.8,88.5c-3.7,0-6.8-3-6.8-6.8s3-6.8,6.8-6.8s6.8,3,6.8,6.8S361.5,88.5,357.8,88.5z"/>
			
				<linearGradient id="SVGID_1_" gradientUnits="userSpaceOnUse" x1="356.0894" y1="62.5104" x2="390.7995" y2="-35.1895" gradientTransform="matrix(1 0 0 -1 0 252.0421)">
				<stop  offset="0" style="stop-color:#5FC3E1"/>
				<stop  offset="0.61" style="stop-color:#2197BC"/>
				<stop  offset="1" style="stop-color:#007FA9"/>
			</linearGradient>
			<path class="st2" d="M414.8,239.5c3,5.3-7.5,13-12.8,16.4h-72.4c0.4-3.3,2-10.8,9.2-12.9c9.3-2.8,9.5,4.3,9.5,4.3
				s7.8-19.6,17.2-18.8s3.9,12.5,3.9,12.5s34.4-37.6,43.8-29.7c9.4,7.8-17.2,35.2-17.2,35.2S410.8,232.5,414.8,239.5L414.8,239.5z"
				/>
			
				<linearGradient id="SVGID_00000117656363413327178150000000818005544095903127_" gradientUnits="userSpaceOnUse" x1="340.6841" y1="-7.2999" x2="374.1041" y2="98.1101" gradientTransform="matrix(1 0 0 -1 0 252.0421)">
				<stop  offset="0" style="stop-color:#FFC757"/>
				<stop  offset="1" style="stop-color:#FF8D02"/>
			</linearGradient>
			<path style="fill:url(#SVGID_00000117656363413327178150000000818005544095903127_);" d="M392.6,220.3c3,5.3-7.5,13-12.8,16.4
				h-72.4c0.4-3.3,2-10.8,9.2-12.9c9.3-2.8,9.5,4.3,9.5,4.3s7.8-19.6,17.2-18.8c9.4,0.8,3.9,12.5,3.9,12.5s34.4-37.6,43.8-29.7
				c9.4,7.8-17.2,35.2-17.2,35.2S388.7,213.2,392.6,220.3L392.6,220.3z"/>
			
				<linearGradient id="SVGID_00000059269020681034153520000001423069789091425699_" gradientUnits="userSpaceOnUse" x1="-1426.9164" y1="100.1984" x2="-1372.5664" y2="-52.7816" gradientTransform="matrix(-1 0 0 -1 -1334.2478 252.0421)">
				<stop  offset="0" style="stop-color:#5FC3E1"/>
				<stop  offset="0.61" style="stop-color:#2197BC"/>
				<stop  offset="1" style="stop-color:#007FA9"/>
			</linearGradient>
			<path style="fill:url(#SVGID_00000059269020681034153520000001423069789091425699_);" d="M0.8,230.2c-4.6,8.4,11.8,20.4,20,25.7
				h113.4c-0.6-5.1-3.1-16.9-14.4-20.2c-14.6-4.3-14.8,6.8-14.8,6.8S92.7,211.8,78,213c-14.7,1.2-6.1,19.6-6.1,19.6
				S18,173.8,3.3,186s27,55.1,27,55.1S6.9,219.1,0.8,230.2L0.8,230.2z"/>
			<line class="st5" x1="364.6" y1="103" x2="364.6" y2="149.8"/>
			<line class="st5" x1="99" y1="11.9" x2="146.3" y2="11.9"/>
			<rect x="152.3" y="6.9" class="st1" width="39.8" height="7.7"/>
			<g>
				<rect x="19" y="151.9" class="st1" width="6.4" height="6.4"/>
				<rect x="26.8" y="144.6" class="st6" width="6.4" height="6.4"/>
			</g>
			<g>
				<rect x="367" y="49.7" class="st1" width="6.4" height="6.4"/>
				<rect x="374.9" y="42.4" class="st6" width="6.4" height="6.4"/>
			</g>
			<g>
				<g>
					<g>
						<g>
							<path class="st6" d="M66.8,23.1h279.3c5.8,0,10.5,4.7,10.5,10.5v170.9c0,5.8-4.7,10.5-10.5,10.5H66.8
								c-5.8,0-10.5-4.7-10.5-10.5V33.6C56.3,27.8,61,23.1,66.8,23.1z"/>
							
								<linearGradient id="SVGID_00000072997565583106340540000006989414271051878049_" gradientUnits="userSpaceOnUse" x1="68.8511" y1="139.316" x2="344.0911" y2="139.316" gradientTransform="matrix(1 0 0 -1 0 252.0421)">
								<stop  offset="0" style="stop-color:#00324D"/>
								<stop  offset="1" style="stop-color:#006693"/>
							</linearGradient>
							<path style="fill:url(#SVGID_00000072997565583106340540000006989414271051878049_);" d="M72.7,32.6h267.6
								c2.1,0,3.8,1.7,3.8,3.8V189c0,2.1-1.7,3.8-3.8,3.8H72.7c-2.1,0-3.8-1.7-3.8-3.8V36.4C68.9,34.3,70.6,32.6,72.7,32.6z"/>
						</g>
						<path class="st6" d="M157.1,23.1l3.9,8.7c2.3,5.2,7.4,8.5,13.1,8.5h64.9c5.6,0,10.8-3.3,13-8.5l3.9-8.7H157.1L157.1,23.1z"/>
					</g>
					<path class="st8" d="M223.2,33.9h-36.4c-1,0-1.9-0.8-1.9-1.9l0,0c0-1,0.8-1.9,1.9-1.9h36.4c1,0,1.9,0.8,1.9,1.9l0,0
						C225.1,33.1,224.3,33.9,223.2,33.9z"/>
				</g>
				<g>
					<path class="st6" d="M206.5,251.7h-49.6c-4.8,0-8.7-3.9-8.7-8.7l0,0c0-4.8,3.9-8.7,8.7-8.7h49.6V251.7L206.5,251.7z"/>
					
						<linearGradient id="SVGID_00000096038063137213876930000014964399393977432194_" gradientUnits="userSpaceOnUse" x1="73.8011" y1="9.056" x2="211.0711" y2="9.056" gradientTransform="matrix(1 0 0 -1 0 252.0421)">
						<stop  offset="0" style="stop-color:#5FC3E1"/>
						<stop  offset="0.61" style="stop-color:#2197BC"/>
						<stop  offset="1" style="stop-color:#007FA9"/>
					</linearGradient>
					<path style="fill:url(#SVGID_00000096038063137213876930000014964399393977432194_);" d="M157.1,234.3h53.9v-3.9H82.8
						c-5,0-9,4-9,9v7.1c0,5,4,9,9,9h128.2v-3.9h-54.2c-4.9,0-8.8-4-8.7-8.9C148.2,238,152.3,234.3,157.1,234.3L157.1,234.3z"/>
					
						<linearGradient id="SVGID_00000026857873370747438900000007035318290016359311_" gradientUnits="userSpaceOnUse" x1="128.6309" y1="55.921" x2="135.5009" y2="12.701" gradientTransform="matrix(1 0 0 -1 0 252.0421)">
						<stop  offset="0" style="stop-color:#5FC3E1"/>
						<stop  offset="0.61" style="stop-color:#2197BC"/>
						<stop  offset="1" style="stop-color:#007FA9"/>
					</linearGradient>
					
						<rect x="135.2" y="230.4" style="fill:url(#SVGID_00000026857873370747438900000007035318290016359311_);" width="1.7" height="25.2"/>
					
						<linearGradient id="SVGID_00000174582637221843857590000004928409090548038280_" gradientUnits="userSpaceOnUse" x1="105.8861" y1="49.551" x2="105.8861" y2="2.551" gradientTransform="matrix(1 0 0 -1 0 252.0421)">
						<stop  offset="0" style="stop-color:#5FC3E1"/>
						<stop  offset="0.61" style="stop-color:#2197BC"/>
						<stop  offset="1" style="stop-color:#007FA9"/>
					</linearGradient>
					
						<rect x="83.1" y="238" style="fill:url(#SVGID_00000174582637221843857590000004928409090548038280_);" width="45.5" height="10.3"/>
				</g>
				<g>
					<path class="st6" d="M195.1,226.9h-49.6c-4.8,0-8.7-3.9-8.7-8.7l0,0c0-4.8,3.9-8.7,8.7-8.7h49.6V226.9L195.1,226.9z"/>
					
						<linearGradient id="SVGID_00000095324248806516031120000011728101749266445484_" gradientUnits="userSpaceOnUse" x1="62.4611" y1="33.846" x2="199.7311" y2="33.846" gradientTransform="matrix(1 0 0 -1 0 252.0421)">
						<stop  offset="0" style="stop-color:#FF8457"/>
						<stop  offset="1" style="stop-color:#FF3843"/>
					</linearGradient>
					<path style="fill:url(#SVGID_00000095324248806516031120000011728101749266445484_);" d="M145.8,209.5h53.9v-3.9H71.5
						c-5,0-9,4-9,9v7.1c0,5,4,9,9,9h128.2v-3.9h-54.2c-4.9,0-8.8-4-8.7-8.9C136.9,213.2,141,209.5,145.8,209.5L145.8,209.5z"/>
					
						<linearGradient id="SVGID_00000087385855369861062760000013900448908780379793_" gradientUnits="userSpaceOnUse" x1="117.3009" y1="80.711" x2="124.1709" y2="37.491" gradientTransform="matrix(1 0 0 -1 0 252.0421)">
						<stop  offset="0" style="stop-color:#FF8457"/>
						<stop  offset="1" style="stop-color:#FF3843"/>
					</linearGradient>
					
						<rect x="123.9" y="205.6" style="fill:url(#SVGID_00000087385855369861062760000013900448908780379793_);" width="1.7" height="25.2"/>
					
						<linearGradient id="SVGID_00000047027000448117587890000018256204863441873565_" gradientUnits="userSpaceOnUse" x1="94.5561" y1="74.341" x2="94.5561" y2="27.341" gradientTransform="matrix(1 0 0 -1 0 252.0421)">
						<stop  offset="0" style="stop-color:#FF8457"/>
						<stop  offset="1" style="stop-color:#FF3843"/>
					</linearGradient>
					
						<rect x="71.8" y="213.2" style="fill:url(#SVGID_00000047027000448117587890000018256204863441873565_);" width="45.5" height="10.3"/>
				</g>
				<g>
					<g>
						<path class="st1" d="M91,169.4H56.3v35.2c0,5.8,4.7,10.5,10.5,10.5h5.2c11.3-2.1,19.9-12,19.9-23.9v-11
							c2.5-0.4,4.5-2.7,4.5-5.3C96.4,171.8,94,169.4,91,169.4L91,169.4z"/>
					</g>
					<g>
						<g>
							
								<linearGradient id="SVGID_00000011006723837183425130000017637981612589507244_" gradientUnits="userSpaceOnUse" x1="81.3519" y1="49.5817" x2="44.0619" y2="89.1918" gradientTransform="matrix(1 0 0 -1 0 252.0421)">
								<stop  offset="0" style="stop-color:#E7E8FA"/>
								<stop  offset="0.19" style="stop-color:#000000;stop-opacity:0.99"/>
								<stop  offset="0.32" style="stop-color:#000000;stop-opacity:0.95"/>
								<stop  offset="0.44" style="stop-color:#000000;stop-opacity:0.89"/>
								<stop  offset="0.55" style="stop-color:#000000;stop-opacity:0.8"/>
								<stop  offset="0.65" style="stop-color:#000000;stop-opacity:0.68"/>
								<stop  offset="0.74" style="stop-color:#000000;stop-opacity:0.54"/>
								<stop  offset="0.84" style="stop-color:#000000;stop-opacity:0.38"/>
								<stop  offset="0.93" style="stop-color:#000000;stop-opacity:0.19"/>
								<stop  offset="1" style="stop-color:#E8E0F2;stop-opacity:0"/>
							</linearGradient>
							<path style="fill:url(#SVGID_00000011006723837183425130000017637981612589507244_);" d="M38.1,169.4h48.6v16.3
								c0,13.4-10.9,24.3-24.3,24.3l0,0c-13.4,0-24.3-10.9-24.3-24.3L38.1,169.4L38.1,169.4L38.1,169.4z"/>
							
								<linearGradient id="SVGID_00000113335178928844013530000010015373647057886853_" gradientUnits="userSpaceOnUse" x1="-1398.0895" y1="559.9304" x2="-1430.0795" y2="593.9205" gradientTransform="matrix(-1 0 0 1 -1347.6078 -329.3)">
								<stop  offset="0" style="stop-color:#6060E7"/>
								<stop  offset="1" style="stop-color:#8182EE"/>
							</linearGradient>
							<path style="fill:url(#SVGID_00000113335178928844013530000010015373647057886853_);" d="M83.1,246.2
								c-1.3-10.2-10.1-18.1-20.7-18.1l0,0c-10.6,0-19.3,7.9-20.7,18.1L83.1,246.2L83.1,246.2z"/>
							<g>
								
									<linearGradient id="SVGID_00000046335266173327525880000009829700209661753988_" gradientUnits="userSpaceOnUse" x1="33.0111" y1="82.636" x2="80.9411" y2="82.636" gradientTransform="matrix(1 0 0 -1 0 252.0421)">
									<stop  offset="0" style="stop-color:#FF8D02"/>
									<stop  offset="1" style="stop-color:#FFC757"/>
								</linearGradient>
								<path style="fill:url(#SVGID_00000046335266173327525880000009829700209661753988_);" d="M80.9,174.8H38.4
									c-3,0-5.4-2.4-5.4-5.4l0,0c0-3,2.4-5.4,5.4-5.4h42.5V174.8L80.9,174.8z"/>
								
									<linearGradient id="SVGID_00000145740961297015981560000006891733229761234332_" gradientUnits="userSpaceOnUse" x1="58.3811" y1="82.646" x2="91.2611" y2="82.646" gradientTransform="matrix(1 0 0 -1 0 252.0421)">
									<stop  offset="0" style="stop-color:#FF8D02"/>
									<stop  offset="1" style="stop-color:#FFC757"/>
								</linearGradient>
								<path style="fill:url(#SVGID_00000145740961297015981560000006891733229761234332_);" d="M85.9,174.8H58.4V164h27.5
									c3,0,5.4,2.4,5.4,5.4l0,0C91.3,172.4,88.8,174.8,85.9,174.8L85.9,174.8z"/>
							</g>
						</g>
						
							<linearGradient id="SVGID_00000073693272109089527800000011201282991697961370_" gradientUnits="userSpaceOnUse" x1="69.0233" y1="44.5737" x2="51.4833" y2="63.2037" gradientTransform="matrix(1 0 0 -1 0 252.0421)">
							<stop  offset="0" style="stop-color:#6060E7"/>
							<stop  offset="1" style="stop-color:#8182EE"/>
						</linearGradient>
						
							<path style="opacity:0.29;fill:url(#SVGID_00000073693272109089527800000011201282991697961370_);enable-background:new    ;" d="
							M51.1,198.9c0.7,5.6,5.5,10,11.3,10l0,0c5.8,0,10.6-4.3,11.3-10H51.1L51.1,198.9z"/>
						<g>
							
								<linearGradient id="SVGID_00000006680571415350873650000011632112658922367655_" gradientUnits="userSpaceOnUse" x1="-1363.8181" y1="506.5618" x2="-1401.1082" y2="546.1718" gradientTransform="matrix(-1 0 0 1 -1320.8878 -288.89)">
								<stop  offset="0" style="stop-color:#E7E8FA"/>
								<stop  offset="0.19" style="stop-color:#000000;stop-opacity:0.99"/>
								<stop  offset="0.32" style="stop-color:#000000;stop-opacity:0.95"/>
								<stop  offset="0.44" style="stop-color:#000000;stop-opacity:0.89"/>
								<stop  offset="0.55" style="stop-color:#000000;stop-opacity:0.8"/>
								<stop  offset="0.65" style="stop-color:#000000;stop-opacity:0.68"/>
								<stop  offset="0.74" style="stop-color:#000000;stop-opacity:0.54"/>
								<stop  offset="0.84" style="stop-color:#000000;stop-opacity:0.38"/>
								<stop  offset="0.93" style="stop-color:#000000;stop-opacity:0.19"/>
								<stop  offset="1" style="stop-color:#E8E0F2;stop-opacity:0"/>
							</linearGradient>
							<path style="fill:url(#SVGID_00000006680571415350873650000011632112658922367655_);" d="M86.2,250.7H37.5v-16.3
								c0-13.4,10.9-24.3,24.3-24.3l0,0c13.4,0,24.3,10.9,24.3,24.3L86.2,250.7L86.2,250.7L86.2,250.7z"/>
							<g>
								
									<linearGradient id="SVGID_00000047760134202580600220000013611596110319976612_" gradientUnits="userSpaceOnUse" x1="-1412.1489" y1="539.616" x2="-1364.2189" y2="539.616" gradientTransform="matrix(-1 0 0 1 -1320.8878 -288.89)">
									<stop  offset="0" style="stop-color:#FF8D02"/>
									<stop  offset="1" style="stop-color:#FFC757"/>
								</linearGradient>
								<path style="fill:url(#SVGID_00000047760134202580600220000013611596110319976612_);" d="M43.3,245.3h42.5
									c3,0,5.4,2.4,5.4,5.4l0,0c0,3-2.4,5.4-5.4,5.4H43.3V245.3L43.3,245.3z"/>
								
									<linearGradient id="SVGID_00000131348118961750203050000006801127218032103044_" gradientUnits="userSpaceOnUse" x1="-1386.7889" y1="539.626" x2="-1353.9089" y2="539.626" gradientTransform="matrix(-1 0 0 1 -1320.8878 -288.89)">
									<stop  offset="0" style="stop-color:#FF8D02"/>
									<stop  offset="1" style="stop-color:#FFC757"/>
								</linearGradient>
								<path style="fill:url(#SVGID_00000131348118961750203050000006801127218032103044_);" d="M38.4,245.3h27.5v10.8H38.4
									c-3,0-5.4-2.4-5.4-5.4l0,0C33,247.8,35.4,245.3,38.4,245.3L38.4,245.3z"/>
							</g>
						</g>
					</g>
				</g>
				<path class="st8" d="M212.5,58.1H56.3V156h123.2l-3.7,9.5l6.2-2.5l3.4,6.2l4.9-12.7c0.1,0,0.2,0,0.2,0l0.7,0.2l3.9,10.2l3.4-6.2
					l6.2,2.5L202,156h10.4c2.3,0,4.1-1.9,4.1-4.1V62.3C216.6,60,214.8,58.1,212.5,58.1L212.5,58.1z"/>
				<g>
					<g>
						<path class="st6" d="M52.1,52.5h162.6c2.3,0,4.1,1.9,4.1,4.1v89.6c0,2.3-1.9,4.1-4.1,4.1H52.1c-2.3,0-4.2-1.9-4.2-4.1V56.7
							C47.9,54.4,49.8,52.5,52.1,52.5z"/>
						<path class="st23" d="M205.1,72.6c-6.2,0-11.2-5-11.2-11.2v0c0-0.8-0.6-1.5-1.4-1.5H72.8c-0.8,0-1.4,0.7-1.4,1.5v0
							c0,6.2-5,11.2-11.2,11.2c-0.4,0-0.9,0-1.3-0.1c-0.8-0.1-1.6,0.6-1.6,1.4v54c0,0.9,0.7,1.5,1.6,1.4c1.7-0.2,3.5,0,5.4,0.8
							c2.5,1,4.5,3,5.7,5.3c1.1,2.1,1.4,4.2,1.2,6.1c-0.1,0.8,0.6,1.6,1.4,1.6h119.8c0.9,0,1.5-0.7,1.4-1.6c-0.2-1.9,0.1-4,1.3-6.1
							c1.5-2.9,4.2-5.1,7.4-5.8c1.4-0.3,2.7-0.4,4-0.2c0.9,0.1,1.6-0.6,1.6-1.4v-54c0-0.9-0.8-1.6-1.6-1.4
							C206.1,72.5,205.6,72.5,205.1,72.6L205.1,72.6z"/>
					</g>
					<path class="st8" d="M103.2,69.7h60.7c1.7,0,3.1,1.4,3.1,3.1v0c0,1.7-1.4,3.1-3.1,3.1h-60.7c-1.7,0-3.1-1.4-3.1-3.1v0
						C100,71.1,101.4,69.7,103.2,69.7z"/>
					<g>
						<path class="st24" d="M115.2,94.9H84.3c-1.4,0-2.6-1.1-2.6-2.6l0,0c0-1.4,1.1-2.6,2.6-2.6h30.9c1.4,0,2.6,1.1,2.6,2.6l0,0
							C117.8,93.7,116.6,94.9,115.2,94.9z"/>
						<path class="st1" d="M186.2,94.9h-62.5c-1.4,0-2.6-1.1-2.6-2.6l0,0c0-1.4,1.1-2.6,2.6-2.6h62.5c1.4,0,2.6,1.1,2.6,2.6l0,0
							C188.8,93.7,187.6,94.9,186.2,94.9L186.2,94.9z"/>
						<path class="st1" d="M191.8,104.8h-114c-1.4,0-2.6-1.1-2.6-2.6l0,0c0-1.4,1.2-2.6,2.6-2.6h114c1.4,0,2.6,1.1,2.6,2.6l0,0
							C194.3,103.6,193.2,104.8,191.8,104.8z"/>
						<path class="st1" d="M164.5,114.2H105c-1.4,0-2.6-1.1-2.6-2.6l0,0c0-1.4,1.1-2.6,2.6-2.6h59.5c1.4,0,2.6,1.1,2.6,2.6l0,0
							C167.1,113,165.9,114.2,164.5,114.2L164.5,114.2z"/>
					</g>
					<g>
						<g>
							
								<linearGradient id="SVGID_00000078755645621827698880000014245298438165191101_" gradientUnits="userSpaceOnUse" x1="237.1655" y1="372.7571" x2="242.8955" y2="338.3671" gradientTransform="matrix(0.933 0.36 0.36 -0.933 -164.8286 394.7973)">
								<stop  offset="0" style="stop-color:#FF8457"/>
								<stop  offset="1" style="stop-color:#FF3843"/>
							</linearGradient>
							<polygon style="fill:url(#SVGID_00000078755645621827698880000014245298438165191101_);" points="187.6,163.7 184.3,157.5 
								178,159.9 185.5,140.5 195.1,144.2 							"/>
							
								<linearGradient id="SVGID_00000016059857104190443450000005991454193344155295_" gradientUnits="userSpaceOnUse" x1="-949.0515" y1="-82.6466" x2="-943.3215" y2="-117.0366" gradientTransform="matrix(-0.933 0.36 -0.36 -0.933 -720.7292 394.7973)">
								<stop  offset="0" style="stop-color:#FF8457"/>
								<stop  offset="1" style="stop-color:#FF3843"/>
							</linearGradient>
							<polygon style="fill:url(#SVGID_00000016059857104190443450000005991454193344155295_);" points="197.4,161.5 200.8,155.3 
								207.1,157.8 199.6,138.3 189.9,142.1 							"/>
						</g>
						
							<linearGradient id="SVGID_00000168085231371684534720000004754322584127591822_" gradientUnits="userSpaceOnUse" x1="178.3673" y1="113.526" x2="206.1249" y2="113.526" gradientTransform="matrix(1 0 0 -1 0 252.0421)">
							<stop  offset="0" style="stop-color:#FF8D02"/>
							<stop  offset="1" style="stop-color:#FFC757"/>
						</linearGradient>
						<path style="fill:url(#SVGID_00000168085231371684534720000004754322584127591822_);" d="M192.8,126l3.9-1.3
							c0.8-0.3,1.7,0.1,2.1,0.9l1.9,3.7c0.2,0.3,0.4,0.6,0.8,0.8l3.7,1.9c0.8,0.4,1.1,1.3,0.9,2.1l-1.3,4c-0.1,0.4-0.1,0.7,0,1.1
							l1.3,4c0.3,0.8-0.1,1.7-0.9,2.1l-3.7,1.9c-0.3,0.2-0.6,0.4-0.8,0.8l-1.9,3.7c-0.4,0.8-1.3,1.1-2.1,0.9l-3.9-1.3
							c-0.4-0.1-0.7-0.1-1.1,0l-3.9,1.3c-0.8,0.3-1.7-0.1-2.1-0.9l-1.9-3.7c-0.2-0.3-0.4-0.6-0.8-0.8l-3.7-1.9
							c-0.8-0.4-1.1-1.3-0.9-2.1l1.3-4c0.1-0.4,0.1-0.7,0-1.1l-1.3-4c-0.3-0.8,0.1-1.7,0.9-2.1l3.7-1.9c0.3-0.2,0.6-0.4,0.8-0.8
							l1.9-3.7c0.4-0.8,1.3-1.1,2.1-0.9l3.9,1.3C192.1,126.1,192.4,126.1,192.8,126z"/>
					</g>
				</g>
				<g>
					<g>
						<path d="M171.6,181l-16.7,1.1l-16.7-1.1c0,0-8.6,5.4-14.9,24.9h63.2C180.2,186.4,171.7,181,171.6,181L171.6,181z"/>
						<path class="st28" d="M155.6,163.9l-53.7,10c-2.8,0.5-2.8,4.5,0,5l53.7,10c0.3,0.1,0.6,0.1,0.9,0l53.7-10c2.8-0.5,2.8-4.5,0-5
							l-53.7-10C156.2,163.8,155.9,163.8,155.6,163.9L155.6,163.9z"/>
					</g>
					<g>
						<line class="st29" x1="156.5" y1="174.9" x2="156.5" y2="220.4"/>
						
							<linearGradient id="SVGID_00000121998116651541460190000011685915996207412881_" gradientUnits="userSpaceOnUse" x1="152.2511" y1="22.861" x2="161.2711" y2="22.861" gradientTransform="matrix(1 0 0 -1 0 252.0421)">
							<stop  offset="0" style="stop-color:#FF8D02"/>
							<stop  offset="1" style="stop-color:#FFC757"/>
						</linearGradient>
						<path style="fill:url(#SVGID_00000121998116651541460190000011685915996207412881_);" d="M161.3,229.2c0,4.9-2,8.8-4.5,8.8
							s-4.5-3.9-4.5-8.8s2-8.8,4.5-8.8S161.3,224.3,161.3,229.2z"/>
						
							<linearGradient id="SVGID_00000162326711268705101170000011580767981114661552_" gradientUnits="userSpaceOnUse" x1="150.5211" y1="77.821" x2="162.1211" y2="77.821" gradientTransform="matrix(1 0 0 -1 0 252.0421)">
							<stop  offset="0" style="stop-color:#FF8D02"/>
							<stop  offset="1" style="stop-color:#FFC757"/>
						</linearGradient>
						<path style="fill:url(#SVGID_00000162326711268705101170000011580767981114661552_);" d="M162.1,174.2c0,1.3-2.6,2.4-5.8,2.4
							s-5.8-1.1-5.8-2.4s2.6-2.4,5.8-2.4S162.1,172.9,162.1,174.2z"/>
					</g>
				</g>
				<path class="st8" d="M346.1,215.1c5.8,0,10.5-4.7,10.5-10.5V174c-20.4-6.8-42.6-6.4-62.8,1.3c-21.4-8.1-45-8.1-66.4,0v4h-5.5
					c-1.4,0-2.5,1.1-2.5,2.5v33.4L346.1,215.1L346.1,215.1z"/>
				<g>
					<path class="st6" d="M245.4,51.9h80.1c3.8,0,6.9,3.1,6.9,6.9v41.8c0,3.8-3.1,6.9-6.9,6.9h-80.1c-3.8,0-6.9-3.1-6.9-6.9V58.8
						C238.5,55,241.6,51.9,245.4,51.9z"/>
					
						<linearGradient id="SVGID_00000182488059051426352020000007091450870539059864_" gradientUnits="userSpaceOnUse" x1="311.5559" y1="190.9595" x2="254.9959" y2="156.3396" gradientTransform="matrix(1 0 0 -1 0 252.0421)">
						<stop  offset="0" style="stop-color:#FF8457"/>
						<stop  offset="1" style="stop-color:#FF3843"/>
					</linearGradient>
					<path style="fill:url(#SVGID_00000182488059051426352020000007091450870539059864_);" d="M301.3,77.6L281.2,66
						c-2.1-1.2-4.7,0.3-4.7,2.7v23.2c0,2.4,2.6,3.9,4.7,2.7L301.3,83C303.4,81.8,303.4,78.8,301.3,77.6L301.3,77.6z"/>
					<path class="st33" d="M312.4,46.1H345c1.9,0,3.4,1.5,3.4,3.4v9.9c0,1.9-1.5,3.4-3.4,3.4h-32.6c-1.9,0-3.4-1.5-3.4-3.4v-9.9
						C309,47.6,310.5,46.1,312.4,46.1z"/>
					<text transform="matrix(1 0 0 1 314.5811 59.2311)" class="st34 st35 st36">TEST 01</text>
				</g>
				<g>
					<path class="st37" d="M245.4,123.2h80.1c3.8,0,6.9,3.1,6.9,6.9v41.8c0,3.8-3.1,6.9-6.9,6.9h-80.1c-3.8,0-6.9-3.1-6.9-6.9v-41.8
						C238.5,126.3,241.6,123.2,245.4,123.2z"/>
					
						<linearGradient id="SVGID_00000139985652860076161450000010902465717295595162_" gradientUnits="userSpaceOnUse" x1="276.4611" y1="100.486" x2="302.8361" y2="100.486" gradientTransform="matrix(1 0 0 -1 0 252.0421)">
						<stop  offset="0" style="stop-color:#F7A805"/>
						<stop  offset="0.19" style="stop-color:#F6A306"/>
						<stop  offset="0.41" style="stop-color:#F3950C"/>
						<stop  offset="0.64" style="stop-color:#F07D15"/>
						<stop  offset="0.89" style="stop-color:#EA5D21"/>
						<stop  offset="1" style="stop-color:#E84C28"/>
					</linearGradient>
					<path style="fill:url(#SVGID_00000139985652860076161450000010902465717295595162_);" d="M301.3,148.8l-20.1-11.6
						c-2.1-1.2-4.7,0.3-4.7,2.7v23.2c0,2.4,2.6,3.9,4.7,2.7l20.1-11.6C303.4,153.1,303.4,150,301.3,148.8L301.3,148.8z"/>
					<path class="st33" d="M312.4,117.3H345c1.9,0,3.4,1.5,3.4,3.4v9.9c0,1.9-1.5,3.4-3.4,3.4h-32.6c-1.9,0-3.4-1.5-3.4-3.4v-9.9
						C309,118.9,310.5,117.3,312.4,117.3z"/>
					<text transform="matrix(1 0 0 1 314.5811 130.501)" class="st34 st35 st36">TEST 02</text>
				</g>
				<g>
					<g>
						<g>
							
								<linearGradient id="SVGID_00000076575186525020606840000010090827352599542942_" gradientUnits="userSpaceOnUse" x1="232.9711" y1="39.681" x2="307.3811" y2="39.681" gradientTransform="matrix(1 0 0 -1 0 252.0421)">
								<stop  offset="0" style="stop-color:#FF8457"/>
								<stop  offset="1" style="stop-color:#FF3843"/>
							</linearGradient>
							<path style="fill:url(#SVGID_00000076575186525020606840000010090827352599542942_);" d="M235.5,169.1h71.9v86.4h-71.9
								c-1.4,0-2.5-1.1-2.5-2.5v-81.4C233,170.3,234.1,169.2,235.5,169.1L235.5,169.1z"/>
							<path class="st6" d="M307.4,250.4H241v-85.3c21.4-8.1,45-8.1,66.4,0V250.4z"/>
						</g>
						<g>
							
								<linearGradient id="SVGID_00000036235382864921779340000013242798004796355466_" gradientUnits="userSpaceOnUse" x1="-1393.9589" y1="39.681" x2="-1319.549" y2="39.681" gradientTransform="matrix(-1 0 0 -1 -1012.1778 252.0421)">
								<stop  offset="0" style="stop-color:#FF8457"/>
								<stop  offset="1" style="stop-color:#FF3843"/>
							</linearGradient>
							<path style="fill:url(#SVGID_00000036235382864921779340000013242798004796355466_);" d="M379.3,255.6h-71.9v-86.4h71.9
								c1.4,0,2.5,1.1,2.5,2.5v81.4C381.8,254.5,380.7,255.6,379.3,255.6L379.3,255.6z"/>
							<path class="st6" d="M307.4,250.4h66.4c0-28.4,0-56.9,0-85.3c-21.4-8.1-45-8.1-66.4,0V250.4z"/>
						</g>
					</g>
					<g>
						<g>
							<path class="st1" d="M294.7,187.6c-14-2.4-28.6-2.4-42.5,0c-1.2,0.2-2.3-0.6-2.5-1.7l0,0c-0.2-1.2,0.6-2.3,1.7-2.5
								c14.5-2.4,29.6-2.4,44,0c1.2,0.2,2,1.3,1.7,2.5l0,0C297,187.1,295.9,187.8,294.7,187.6L294.7,187.6z"/>
							<path class="st1" d="M294.7,200.4c-14-2.4-28.6-2.4-42.5,0c-1.2,0.2-2.3-0.6-2.5-1.7l0,0c-0.2-1.2,0.6-2.3,1.7-2.5
								c14.5-2.4,29.6-2.4,44,0c1.2,0.2,2,1.3,1.7,2.5l0,0C297,199.8,295.9,200.5,294.7,200.4L294.7,200.4z"/>
							<path class="st1" d="M294.7,213.1c-14-2.4-28.6-2.4-42.5,0c-1.2,0.2-2.3-0.6-2.5-1.7l0,0c-0.2-1.2,0.6-2.3,1.7-2.5
								c14.5-2.4,29.6-2.4,44,0c1.2,0.2,2,1.3,1.7,2.5l0,0C297,212.5,295.9,213.3,294.7,213.1L294.7,213.1z"/>
							<path class="st1" d="M294.7,225.8c-14-2.4-28.6-2.4-42.5,0c-1.2,0.2-2.3-0.6-2.5-1.7l0,0c-0.2-1.2,0.6-2.3,1.7-2.5
								c14.5-2.4,29.6-2.4,44,0c1.2,0.2,2,1.3,1.7,2.5l0,0C297,225.2,295.9,226,294.7,225.8L294.7,225.8z"/>
						</g>
						<g>
							<path class="st1" d="M363.4,187.6c-14-2.4-28.6-2.4-42.5,0c-1.2,0.2-2.3-0.6-2.5-1.7l0,0c-0.2-1.2,0.6-2.3,1.7-2.5
								c14.5-2.4,29.6-2.4,44,0c1.2,0.2,2,1.3,1.7,2.5l0,0C365.7,187.1,364.6,187.8,363.4,187.6L363.4,187.6z"/>
							<path class="st1" d="M363.4,200.4c-14-2.4-28.6-2.4-42.5,0c-1.2,0.2-2.3-0.6-2.5-1.7l0,0c-0.2-1.2,0.6-2.3,1.7-2.5
								c14.5-2.4,29.6-2.4,44,0c1.2,0.2,2,1.3,1.7,2.5l0,0C365.7,199.8,364.6,200.5,363.4,200.4L363.4,200.4z"/>
							<path class="st1" d="M363.4,213.1c-14-2.4-28.6-2.4-42.5,0c-1.2,0.2-2.3-0.6-2.5-1.7l0,0c-0.2-1.2,0.6-2.3,1.7-2.5
								c14.5-2.4,29.6-2.4,44,0c1.2,0.2,2,1.3,1.7,2.5l0,0C365.7,212.5,364.6,213.3,363.4,213.1L363.4,213.1z"/>
							<path class="st1" d="M363.4,225.8c-14-2.4-28.6-2.4-42.5,0c-1.2,0.2-2.3-0.6-2.5-1.7l0,0c-0.2-1.2,0.6-2.3,1.7-2.5
								c14.5-2.4,29.6-2.4,44,0c1.2,0.2,2,1.3,1.7,2.5l0,0C365.7,225.2,364.6,226,363.4,225.8L363.4,225.8z"/>
						</g>
					</g>
				</g>
				<path class="st8" d="M56.3,33.6v64.1c0.4,0.1,0.8,0.2,1.2,0.3l0,0l0,0c0.2,0,0.4,0,0.6,0v2.8c0,1.4,1.1,2.5,2.5,2.5h3.7
					c1.4,0,2.5-1.1,2.5-2.5V98c3.5-0.2,6.3-3,6.5-6.6l0.4-10.1c6.7-2.3,9-14.4,10-19.2c0.1-0.4,0.3-0.7,0.6-0.9
					c11.6-9.3,14.8-25.3,8.6-38.1H66.8C61,23.1,56.3,27.8,56.3,33.6L56.3,33.6z"/>
				<g>
					<path class="st1" d="M52.7,90.3h8.6v5.9c0,1.4-1.1,2.5-2.5,2.5h-3.7c-1.4,0-2.5-1.1-2.5-2.5V90.3L52.7,90.3z"/>
					<g>
						<g>
							<path class="st28" d="M60.9,93.4h-8c-3.7,0-6.7-2.9-6.8-6.6l-0.6-17.6h22.8l-0.6,17.6C67.6,90.5,64.6,93.4,60.9,93.4z"/>
							<path class="st41" d="M52.1,93.4c3.3-0.4,5.8-3.1,6-6.5l0.6-17.6H45.5l0.6,17.6C46.3,90.2,48.8,93,52.1,93.4L52.1,93.4z"/>
							
								<linearGradient id="SVGID_00000177466264373202080130000003131450767083059871_" gradientUnits="userSpaceOnUse" x1="46.7809" y1="250.1243" x2="71.1309" y2="177.3043" gradientTransform="matrix(1 0 0 -1 0 252.0421)">
								<stop  offset="0" style="stop-color:#FFC757"/>
								<stop  offset="1" style="stop-color:#FF8D02"/>
							</linearGradient>
							<path style="fill:url(#SVGID_00000177466264373202080130000003131450767083059871_);" d="M35.2,56.7c0.3,0.2,0.5,0.6,0.6,0.9
								c1,5.3,3.8,19.6,12.3,19.6h17.6c8.6,0,11.3-14.2,12.3-19.6c0.1-0.4,0.3-0.7,0.6-0.9c13.5-10.9,15.7-30.6,4.8-44.1
								c-0.8-1-1.7-2-2.6-2.9c-6.4-6.3-15-9.8-23.9-9.7h-0.6c-9.1,0.2-17.8,4-24,10.6c-5.9,6.1-9.1,14.3-8.8,22.8
								C23.9,42.5,28.1,51,35.2,56.7L35.2,56.7z"/>
						</g>
						
							<linearGradient id="SVGID_00000022530627514572170770000018201578395046700173_" gradientUnits="userSpaceOnUse" x1="100.5295" y1="268.282" x2="70.0496" y2="221.912" gradientTransform="matrix(1 0 0 -1 1.039325e-03 252.0408)">
							<stop  offset="0" style="stop-color:#E7E8FA"/>
							<stop  offset="0.19" style="stop-color:#000000;stop-opacity:0.99"/>
							<stop  offset="0.32" style="stop-color:#000000;stop-opacity:0.95"/>
							<stop  offset="0.44" style="stop-color:#000000;stop-opacity:0.89"/>
							<stop  offset="0.55" style="stop-color:#000000;stop-opacity:0.8"/>
							<stop  offset="0.65" style="stop-color:#000000;stop-opacity:0.68"/>
							<stop  offset="0.74" style="stop-color:#000000;stop-opacity:0.54"/>
							<stop  offset="0.84" style="stop-color:#000000;stop-opacity:0.38"/>
							<stop  offset="0.93" style="stop-color:#000000;stop-opacity:0.19"/>
							<stop  offset="1" style="stop-color:#E8E0F2;stop-opacity:0"/>
						</linearGradient>
						<circle style="fill:url(#SVGID_00000022530627514572170770000018201578395046700173_);" cx="72.8" cy="25.9" r="10.3"/>
					</g>
				</g>
				<g>
					<path class="st8" d="M296.5,244.4l-3.2-3.2c-0.4-0.4-1-0.6-1.5-0.6h-21.7c-1-7.7-7.6-13.6-15.6-13.6c-0.3,0-0.5,0-0.8,0
						c-0.3,0-0.6,0-0.9,0l0,0c-0.2,0-0.4,0-0.5,0c-0.1,0-0.1,0-0.2,0c-8,0.4-14.4,6.6-15,14.5c-1.5-0.3-3-0.3-4.6-0.2v2.6
						c1.5-0.2,3.1-0.1,4.6,0.2c0.4,4.6,2.9,8.7,6.4,11.3h20.2c3.4-2.5,5.8-6.2,6.3-10.6h20.8l2.6,2.6c0.4,0.4,1,0.6,1.5,0.6
						s1.1-0.2,1.5-0.6C297.4,246.6,297.4,245.2,296.5,244.4L296.5,244.4z"/>
					<g>
						<g>
							<g>
								<path class="st44" d="M291,245.2c-0.5,0-1.1-0.2-1.5-0.6l-2.6-2.6h-22.4c-1.2,0-2.1-1-2.1-2.1s1-2.1,2.1-2.1h23.2
									c0.6,0,1.1,0.2,1.5,0.6l3.2,3.2c0.8,0.8,0.8,2.2,0,3C292.1,245,291.5,245.2,291,245.2L291,245.2z"/>
								<g>
									<path class="st44" d="M234.6,241.8c-2.8-1.1-6.2-1.1-9,0l-0.9-2.4c3.4-1.3,7.4-1.3,10.8,0L234.6,241.8L234.6,241.8z"/>
									<g>
										<circle cx="211.6" cy="239.8" r="15.7"/>
										<g>
											<circle class="st28" cx="209.9" cy="239.8" r="15.7"/>
											<circle class="st1" cx="209.9" cy="239.8" r="12.3"/>
											<path class="st6" d="M210.8,227.6c-6.4,0.4-11.4,5.8-11.4,12.3s5.1,11.8,11.4,12.3c6.4-0.4,11.5-5.8,11.5-12.3
												S217.2,228,210.8,227.6z"/>
										</g>
									</g>
									<g>
										<circle cx="250.5" cy="239.8" r="15.7"/>
										<g>
											<circle class="st28" cx="248.8" cy="239.8" r="15.7"/>
											<circle class="st1" cx="248.8" cy="239.8" r="12.3"/>
											<path class="st6" d="M249.6,227.6c-6.4,0.4-11.5,5.8-11.5,12.3s5,11.8,11.5,12.3c6.4-0.4,11.5-5.8,11.5-12.3
												S256,228,249.6,227.6z"/>
										</g>
									</g>
								</g>
							</g>
							<path class="st45" d="M249.8,227.6c1.1,0.1,2.3,0.4,3.3,0.8c1.1,0.4,2.3-0.4,2.3-1.6l0,0c0-0.7-0.4-1.4-1.1-1.6
								c-1.7-0.6-3.6-1-5.5-1c-0.2,0-0.4,0-0.5,0c-0.9,0-1.7,0.8-1.7,1.7v0.2c0,1.1,1,1.9,2,1.7c0.3,0,0.6-0.1,0.9-0.1
								C249.6,227.6,249.7,227.6,249.8,227.6L249.8,227.6z"/>
						</g>
						<g>
							<path class="st1" d="M217.3,230l-8.5,21.8c0.6,0.1,1.3,0.3,1.9,0.3c0.1,0,0.2,0,0.2,0l8-20.5
								C218.5,231,217.9,230.5,217.3,230L217.3,230z"/>
							<path class="st1" d="M210.8,227.6c-0.5,0-1,0.1-1.5,0.2l-7.5,19.4c1.3,1.8,3.2,3.2,5.3,4.1l8.6-22.2
								C214.2,228.2,212.6,227.7,210.8,227.6L210.8,227.6z"/>
						</g>
						<g>
							<path class="st1" d="M256,229.9l-8.5,21.9c0.7,0.2,1.4,0.3,2.1,0.4c0,0,0,0,0,0l8-20.7C257.2,230.8,256.6,230.3,256,229.9
								L256,229.9z"/>
							<path class="st1" d="M249.6,227.6c-0.6,0-1.2,0.1-1.7,0.3l-7.4,19.1c1.3,1.8,3.1,3.3,5.2,4.2l8.6-22.3
								C252.9,228.2,251.3,227.7,249.6,227.6L249.6,227.6z"/>
						</g>
					</g>
				</g>
			</g>
		</g>
	</g>
</g>
</svg>
