<?xml version="1.0" standalone="no"?>
<!DOCTYPE svg PUBLIC "-//W3C//DTD SVG 20010904//EN"
 "http://www.w3.org/TR/2001/REC-SVG-20010904/DTD/svg10.dtd">
<svg version="1.0" xmlns="http://www.w3.org/2000/svg"
 width="548.000000pt" height="656.000000pt" viewBox="0 0 548.000000 656.000000"
 preserveAspectRatio="xMidYMid meet">

<g transform="translate(0.000000,656.000000) scale(0.100000,-0.100000)"
fill="#000000" stroke="none">
<path d="M213 870 c-123 -26 -194 -110 -180 -213 11 -80 62 -117 211 -152 76
-18 91 -24 91 -41 0 -31 -112 -26 -189 9 -32 15 -60 27 -61 27 -10 0 -75 -122
-70 -130 12 -19 84 -50 152 -66 146 -34 292 -4 350 73 39 51 44 144 11 192
-32 48 -69 67 -182 95 -54 13 -100 27 -103 30 -3 3 0 13 8 22 19 23 114 12
180 -22 28 -14 52 -24 54 -22 1 2 20 30 40 62 l38 60 -22 17 c-61 49 -230 80
-328 59z"/>
<path d="M610 585 l0 -285 245 0 246 0 -3 73 -3 72 -137 3 -138 3 0 29 0 29
108 3 107 3 3 68 3 67 -111 0 -110 0 0 35 0 35 135 0 135 0 0 75 0 75 -240 0
-240 0 0 -285z"/>
<path d="M1150 585 l0 -285 90 0 90 0 0 155 0 155 79 -152 79 -153 111 -3 111
-3 0 286 0 285 -85 0 -85 0 0 -162 0 -163 -83 160 -83 160 -112 3 -112 3 0
-286z"/>
<path d="M1847 608 c-47 -145 -88 -273 -92 -285 -6 -23 -5 -23 94 -23 l100 0
12 55 12 55 77 0 77 0 12 -55 12 -55 104 0 103 0 -64 198 c-35 108 -76 235
-92 282 l-29 85 -120 3 -121 3 -85 -263z m211 -76 c-22 -2 -43 -1 -46 3 -6 5
25 152 36 170 4 6 16 -30 28 -80 l21 -90 -39 -3z"/>
<path d="M2600 585 l0 -285 230 0 230 0 0 75 0 75 -130 0 -130 0 0 210 0 210
-100 0 -100 0 0 -285z"/>
<path d="M3127 863 c-4 -3 -7 -132 -7 -285 l0 -278 245 0 245 0 0 75 0 75
-140 0 -140 0 0 30 0 30 110 0 110 0 0 70 0 70 -110 0 -110 0 0 35 0 35 135 0
135 0 0 75 0 75 -233 0 c-129 0 -237 -3 -240 -7z"/>
<path d="M3795 858 c-24 -71 -175 -543 -175 -550 0 -4 44 -8 98 -8 l99 0 12
55 12 55 75 0 c51 0 76 -4 79 -12 2 -7 9 -32 15 -55 l11 -43 99 0 c74 0 100 3
100 13 -1 6 -41 134 -89 282 l-89 270 -121 3 c-92 2 -122 -1 -126 -10z m150
-238 c10 -44 16 -83 13 -86 -3 -3 -24 -4 -45 -2 l-40 3 20 87 c11 48 23 85 27
83 3 -2 15 -40 25 -85z"/>
<path d="M4260 586 l0 -286 100 0 100 0 0 96 0 95 27 -3 c23 -3 35 -17 76 -95
l48 -93 111 0 110 0 -14 23 c-8 12 -39 59 -68 105 l-53 83 38 31 c100 83 85
238 -30 297 -47 25 -58 26 -247 29 l-198 4 0 -286z m328 122 c17 -17 15 -54
-4 -72 -10 -11 -34 -16 -70 -16 l-54 0 0 50 0 50 58 0 c32 0 63 -5 70 -12z"/>
<path d="M4870 585 l0 -285 91 0 92 0 -5 160 -5 160 82 -157 81 -158 112 -3
112 -3 0 286 0 286 -87 -3 -88 -3 1 -157 c0 -87 -1 -156 -2 -155 -1 1 -38 72
-82 157 l-80 155 -111 3 -111 3 0 -286z"/>
</g>
</svg>
