<?xml version="1.0" encoding="UTF-8"?>
<svg id="OBJECTS" xmlns="http://www.w3.org/2000/svg" viewBox="0 0 492.12 492.1">
  <circle cx="246.82" cy="245.29" r="245.29" style="fill: #4d2257; stroke-width: 0px;"/>
  <g>
    <g>
      <g>
        <path d="M309.87,279.45c34.9,20.15,34.9,52.82,0,72.97-34.9,20.15-91.49,20.15-126.39,0-34.9-20.15-34.9-52.82,0-72.97,34.9-20.15,91.49-20.15,126.39,0Z" style="fill: #a7a9ac; stroke-width: 0px;"/>
        <rect x="157.3" y="315.94" width="179.02" height="35.2" style="fill: #a7a9ac; stroke-width: 0px;"/>
      </g>
      <g>
        <path d="M312.44,298.85c36.33,20.97,36.33,54.98,0,75.95-36.33,20.97-95.22,20.97-131.55,0-36.33-20.97-36.33-54.98,0-75.95,36.33-20.97,95.22-20.97,131.55,0Z" style="fill: #e6e7e8; stroke-width: 0px;"/>
        <rect x="153.65" y="300.19" width="186.32" height="36.64" style="fill: #e6e7e8; stroke-width: 0px;"/>
        <path d="M312.44,262.22c36.33,20.97,36.33,54.98,0,75.95-36.33,20.97-95.22,20.97-131.55,0-36.33-20.97-36.33-54.98,0-75.95,36.33-20.97,95.22-20.97,131.55,0Z" style="fill: #fff; stroke-width: 0px;"/>
      </g>
    </g>
    <g>
      <g>
        <path d="M309.87,213.53c34.9,20.15,34.9,52.82,0,72.97-34.9,20.15-91.49,20.15-126.39,0-34.9-20.15-34.9-52.82,0-72.97,34.9-20.15,91.49-20.15,126.39,0Z" style="fill: #a7a9ac; stroke-width: 0px;"/>
        <path d="M309.87,248.74c34.9,20.15,34.9,52.82,0,72.97-34.9,20.15-91.49,20.15-126.39,0-34.9-20.15-34.9-52.82,0-72.97,34.9-20.15,91.49-20.15,126.39,0Z" style="fill: #4d2257; stroke-width: 0px;"/>
        <rect x="157.3" y="250.02" width="179.02" height="35.2" style="fill: #a7a9ac; stroke-width: 0px;"/>
      </g>
      <g>
        <path d="M312.44,232.94c36.33,20.97,36.33,54.98,0,75.95-36.33,20.97-95.22,20.97-131.55,0-36.33-20.97-36.33-54.98,0-75.95,36.33-20.97,95.22-20.97,131.55,0Z" style="fill: #e6e7e8; stroke-width: 0px;"/>
        <rect x="153.65" y="234.27" width="186.32" height="36.64" style="fill: #e6e7e8; stroke-width: 0px;"/>
        <path d="M312.44,196.3c36.33,20.97,36.33,54.98,0,75.95-36.33,20.97-95.22,20.97-131.55,0-36.33-20.97-36.33-54.98,0-75.95,36.33-20.97,95.22-20.97,131.55,0Z" style="fill: #fff; stroke-width: 0px;"/>
      </g>
    </g>
    <g>
      <g>
        <path d="M309.87,147.61c34.9,20.15,34.9,52.82,0,72.97-34.9,20.15-91.49,20.15-126.39,0-34.9-20.15-34.9-52.82,0-72.97,34.9-20.15,91.49-20.15,126.39,0Z" style="fill: #a7a9ac; stroke-width: 0px;"/>
        <path d="M309.87,182.82c34.9,20.15,34.9,52.82,0,72.97-34.9,20.15-91.49,20.15-126.39,0-34.9-20.15-34.9-52.82,0-72.97,34.9-20.15,91.49-20.15,126.39,0Z" style="fill: #4d2257; stroke-width: 0px;"/>
        <rect x="157.3" y="184.1" width="179.02" height="35.2" style="fill: #a7a9ac; stroke-width: 0px;"/>
      </g>
      <g>
        <path d="M312.44,167.02c36.33,20.97,36.33,54.98,0,75.95-36.33,20.97-95.22,20.97-131.55,0-36.33-20.97-36.33-54.98,0-75.95,36.33-20.97,95.22-20.97,131.55,0Z" style="fill: #e6e7e8; stroke-width: 0px;"/>
        <rect x="153.65" y="168.35" width="186.32" height="36.64" style="fill: #e6e7e8; stroke-width: 0px;"/>
        <path d="M312.44,130.38c36.33,20.97,36.33,54.98,0,75.95-36.33,20.97-95.22,20.97-131.55,0-36.33-20.97-36.33-54.98,0-75.95,36.33-20.97,95.22-20.97,131.55,0Z" style="fill: #fff; stroke-width: 0px;"/>
      </g>
    </g>
  </g>
</svg>