<?xml version="1.0" encoding="UTF-8"?>
<svg id="OBJECTS" xmlns="http://www.w3.org/2000/svg" viewBox="0 0 492.12 492.1">
  <circle cx="246.28" cy="245.71" r="245.71" style="fill: #ffbb01; stroke-width: 0px;"/>
  <g>
    <path d="M409.5,267.26c0,26.02-21.08,47.12-47.12,47.12h-85.04v-51.68h4.86c4.64,0,8.74-2.75,10.53-7.02,1.78-4.29.81-9.15-2.46-12.44l-35.95-35.9c-2.13-2.19-4.99-3.35-8.04-3.35s-5.91,1.19-8.07,3.35l-35.9,35.9c-3.29,3.29-4.26,8.15-2.48,12.44,1.78,4.26,5.91,7.02,10.53,7.02h4.86v51.68h-85.04c-26.02,0-47.12-21.11-47.12-47.12s21.11-47.12,47.12-47.12h.59c4.83-42.02,40.51-74.68,83.86-74.68,32.85,0,61.27,18.76,75.25,46.1,4.24-.89,8.61-1.38,13.12-1.38,3.29,0,6.5.27,9.66.76,18.6,2.89,34.44,14.06,43.72,29.61,1.97-.27,3.97-.4,6.02-.4,26.04,0,47.12,21.08,47.12,47.12Z" style="fill: #fff; stroke-width: 0px;"/>
    <path d="M265.93,334.58c1.26,0,2.3-1.03,2.3-2.29v-72.74c0-3.28,2.67-5.95,5.95-5.95h8.01c1.39,0,1.95-.99,2.12-1.41.18-.43.48-1.52-.5-2.5l-35.93-35.93c-.43-.43-1.01-.67-1.62-.67s-1.19.24-1.62.67l-35.92,35.93c-.98.98-.67,2.07-.5,2.5.18.43.74,1.42,2.12,1.42h8.02c3.28,0,5.95,2.67,5.95,5.95v72.74c0,1.26,1.03,2.29,2.29,2.29h39.32Z" style="fill: #fff; stroke-width: 0px;"/>
  </g>
</svg>