<?xml version="1.0" encoding="UTF-8"?>
<svg id="OBJECTS" xmlns="http://www.w3.org/2000/svg" viewBox="0 0 492.12 492.1">
  <circle cx="246.4" cy="245.33" r="245.33" transform="translate(-101.31 246.09) rotate(-45)" style="fill: #c41929; stroke-width: 0px;"/>
  <g>
    <path d="M234.44,249.39v77.47c0,3.66-2.97,6.63-6.63,6.63h-77.46c-3.66,0-6.63-2.97-6.63-6.63v-73.32c0-.9.19-1.8.54-2.63l38.81-89.75c1.05-2.43,3.44-4,6.08-4h25.33c4.41,0,7.59,4.23,6.36,8.47l-19.9,68.65c-1.23,4.24,1.95,8.47,6.36,8.47h20.49c3.66,0,6.63,2.97,6.63,6.63Z" style="fill: #fff; stroke-width: 0px;"/>
    <path d="M258.34,241.27v-77.47c0-3.66,2.97-6.63,6.63-6.63h77.46c3.66,0,6.63,2.97,6.63,6.63v73.32c0,.9-.19,1.8-.54,2.63l-38.81,89.75c-1.05,2.43-3.44,4-6.08,4h-25.33c-4.41,0-7.59-4.23-6.36-8.47l19.9-68.65c1.23-4.24-1.95-8.47-6.36-8.47h-20.49c-3.66,0-6.63-2.97-6.63-6.63Z" style="fill: #fff; stroke-width: 0px;"/>
  </g>
</svg>