<?xml version="1.0" encoding="UTF-8"?>
<svg id="OBJECTS" xmlns="http://www.w3.org/2000/svg" viewBox="0 0 492.12 492.1">
  <circle cx="245.84" cy="245.29" r="245.29" style="fill: #24a2f9; stroke-width: 0px;"/>
  <path d="M372.04,238.18c-.12-3.6-1.57-6.99-4.14-9.59-2.77-2.81-6.49-4.38-10.38-4.42l-19.15-.17-.91-2.89c-1.41-4.3-3.14-8.56-5.13-12.7l-1.28-2.65,13.65-13.4c2.77-2.77,4.38-6.45,4.38-10.38.04-3.93-1.45-7.65-4.18-10.46l-18.03-18.32c-3.14-3.23-7.49-4.84-11.99-4.38-3.35.33-6.41,1.78-8.85,4.14l-.25.25-13.4,13.15-2.65-1.36c-4.05-2.07-8.27-3.85-12.57-5.33l-2.85-.99.17-19.11c.04-3.97-1.45-7.69-4.18-10.46-2.77-2.81-6.45-4.42-10.42-4.42l-25.68-.25c-.54-.04-1.08.04-1.61.08-7.44.74-13.19,6.95-13.23,14.52l-.21,19.11-2.85.95c-4.34,1.36-8.64,3.1-12.7,5.13l-2.65,1.28-13.44-13.69c-3.1-3.14-7.49-4.76-11.95-4.34-3.39.37-6.45,1.78-8.85,4.18l-18.36,17.99c-5.79,5.67-5.91,15.05-.21,20.84l13.4,13.65-1.37,2.65c-2.07,4.01-3.89,8.27-5.33,12.61l-.99,2.81-19.15-.21c-.54.04-1.08.04-1.61.08-7.49.74-13.15,7.03-13.27,14.56l-.21,25.68c-.04.29,0,.58.04.87.25,6.08,4.26,11.21,9.8,13.15,1.49.54,3.1.83,4.76.87l19.11.21.91,2.81c.87,2.56,1.78,5.09,2.85,7.57.7,1.74,1.45,3.47,2.27,5.13l1.32,2.69-6.82,6.66-6.87,6.7c-2.44,2.44-3.89,5.42-4.26,8.6-.58,4.34.79,8.89,4.09,12.24l1.32,1.36,12.61,12.94,4.05,4.09c3.1,3.18,7.53,4.76,11.95,4.34,3.39-.33,6.45-1.78,8.85-4.18l7.65-7.49,6.04-5.91,2.65,1.41c2.11,1.08,4.3,2.11,6.53,3.02,1.99.83,4.01,1.61,6.08,2.32l2.85.99-.17,9.97-.08,9.18c0,1.7.25,3.35.83,4.92.7,2.07,1.86,3.89,3.43,5.5,2.77,2.77,6.45,4.38,10.34,4.38l25.72.25c.54.04,1.08,0,1.61-.08,7.49-.74,13.19-6.95,13.27-14.47l.04-.95.12-14.18v-4.01l2.85-.87c4.34-1.45,8.6-3.14,12.7-5.13l2.69-1.32,8.52,8.68,4.88,4.96c.5.5,1.03.99,1.61,1.41,2.94,2.27,6.58,3.27,10.38,2.94,3.31-.33,6.37-1.78,8.81-4.18l8.77-8.56,9.59-9.43c1.74-1.7,3.02-3.76,3.72-6.04.46-1.37.7-2.81.7-4.3.04-3.6-1.2-6.95-3.43-9.59-.25-.33-.54-.62-.79-.87l-11.83-12.08-1.57-1.57,1.36-2.69c1.74-3.31,3.27-6.78,4.55-10.34.29-.74.58-1.49.83-2.27l.95-2.81,19.15.21c.54-.04,1.08-.04,1.61-.08,6.86-.7,12.24-6.04,13.11-12.74.08-.58.12-1.16.12-1.78l.12-12.41.12-13.32c0-.29,0-.54-.04-.83ZM305.79,255.51c-.08,1.12-.17,2.27-.33,3.39-.7,5.05-2.03,9.97-3.89,14.56-2.23,5.46-5.25,10.55-8.93,15.05-5.42,6.78-12.32,12.32-20.22,16.17-6.29,3.1-13.23,5.13-20.59,5.87-2.15.21-4.38.29-6.58.29-5.09-.04-10.01-.74-14.76-1.98-8.48-2.23-16.29-6.24-23.03-11.91-1.61-1.28-3.1-2.69-4.55-4.18-2.69-2.73-5.09-5.67-7.2-8.85-2.81-4.18-5.05-8.68-6.74-13.48-1.53-4.42-2.56-9.06-3.02-13.81-.21-2.15-.29-4.34-.29-6.58.29-30.77,23.61-56.24,54.17-59.3,2.19-.21,4.38-.29,6.62-.25,16.05.12,31.1,6.53,42.35,18.03,9.76,9.93,15.63,22.58,16.96,36.23,0,.17.04.37.04.54.17,1.99.25,3.97.21,5.96-.04,1.41-.08,2.85-.21,4.26Z" style="fill: #fff; stroke-width: 0px;"/>
</svg>